<svg width="138" height="40" viewBox="0 0 138 40" fill="none" xmlns="http://www.w3.org/2000/svg">
<g clip-path="url(#clip0_1513_5528)">
<path d="M24.359 3.73012C27.5197 -0.187269 33.7221 3.39395 31.9097 8.08911C36.6061 6.27679 40.1861 12.4791 36.2687 15.6398C41.2418 16.4188 41.2418 23.58 36.2687 24.359C40.1861 27.5197 36.6049 33.722 31.9097 31.9097C33.7221 36.6061 27.5197 40.1861 24.359 36.2687C23.58 41.2417 16.4188 41.2417 15.6398 36.2687C12.4791 40.1861 6.2768 36.6049 8.08912 31.9097C3.39272 33.722 -0.187254 27.5197 3.73013 24.359C-1.24289 23.58 -1.24289 16.4188 3.73013 15.6398C-0.187254 12.4791 3.39396 6.27679 8.08912 8.08911C6.27804 3.39271 12.4791 -0.187269 15.6398 3.73012C16.4188 -1.2429 23.58 -1.2429 24.359 3.73012Z" fill="#262626"/>
<g clip-path="url(#clip1_1513_5528)">
<path d="M28.2028 15.8016L22.4442 11.6686C21.2017 10.7769 19.5482 10.7769 18.3056 11.6686L12.5475 15.8016C10.1272 17.5385 10.7354 21.0858 13.066 22.1973V24.6613C13.0784 27.0598 14.977 28.9999 17.3177 28.9999C18.518 28.9999 19.6015 28.4897 20.3747 27.6696C21.1479 28.4897 22.2314 28.9999 23.4317 28.9999C25.7724 28.9999 27.671 27.0598 27.6834 24.6613V22.1973C30.0145 21.0853 30.6222 17.5385 28.2019 15.8016H28.2028Z" fill="white"/>
</g>
</g>
<path d="M132.842 33.4169V13.7805H136.664V33.4169H132.842ZM134.772 10.7507C134.107 10.7507 133.536 10.5291 133.059 10.0859C132.59 9.63423 132.356 9.0973 132.356 8.47514C132.356 7.84446 132.59 7.30753 133.059 6.86435C133.536 6.41264 134.107 6.18679 134.772 6.18679C135.437 6.18679 136.004 6.41264 136.472 6.86435C136.95 7.30753 137.188 7.84446 137.188 8.47514C137.188 9.0973 136.95 9.63423 136.472 10.0859C136.004 10.5291 135.437 10.7507 134.772 10.7507Z" fill="#262626"/>
<path d="M129.499 7.23508V33.4169H125.677V7.23508H129.499Z" fill="#262626"/>
<path d="M122.334 7.23508V33.4169H118.512V7.23508H122.334Z" fill="#262626"/>
<path d="M107.646 33.8132C105.711 33.8132 104.045 33.3999 102.647 32.5732C101.258 31.7379 100.184 30.5661 99.4259 29.0575C98.6759 27.5405 98.3009 25.7635 98.3009 23.7266C98.3009 21.7152 98.6759 19.9425 99.4259 18.4084C100.184 16.8743 101.241 15.6768 102.596 14.8161C103.96 13.9553 105.554 13.5249 107.378 13.5249C108.486 13.5249 109.559 13.7081 110.599 14.0746C111.639 14.4411 112.572 15.0163 113.399 15.8004C114.226 16.5845 114.878 17.603 115.355 18.8558C115.832 20.1001 116.071 21.6129 116.071 23.3942V24.7493H100.461V21.8857H112.325C112.325 20.88 112.121 19.9893 111.711 19.2138C111.302 18.4297 110.727 17.8118 109.986 17.3601C109.253 16.9084 108.392 16.6825 107.403 16.6825C106.329 16.6825 105.392 16.9467 104.591 17.4751C103.798 17.995 103.184 18.6768 102.75 19.5206C102.324 20.3558 102.111 21.2635 102.111 22.2436V24.4808C102.111 25.7933 102.341 26.9098 102.801 27.8303C103.27 28.7507 103.922 29.4538 104.757 29.9396C105.592 30.4169 106.568 30.6555 107.684 30.6555C108.409 30.6555 109.069 30.5533 109.666 30.3487C110.263 30.1357 110.778 29.8203 111.213 29.4027C111.647 28.9851 111.98 28.4695 112.21 27.8558L115.828 28.5078C115.538 29.5732 115.018 30.5064 114.268 31.3075C113.527 32.1001 112.594 32.718 111.469 33.1612C110.352 33.5959 109.078 33.8132 107.646 33.8132Z" fill="#262626"/>
<path d="M76.1307 33.4169L70.3523 13.7805H74.3026L78.1506 28.201H78.3424L82.2031 13.7805H86.1534L89.9887 28.1371H90.1804L94.0029 13.7805H97.9531L92.1875 33.4169H88.2884L84.2997 19.2393H84.0057L80.0171 33.4169H76.1307Z" fill="#262626"/>
<path d="M56.4759 33.4169H48V7.23508H56.7443C59.3097 7.23508 61.5128 7.75923 63.3537 8.80753C65.1946 9.8473 66.6051 11.343 67.5852 13.2947C68.5739 15.2379 69.0682 17.5689 69.0682 20.2876C69.0682 23.0149 68.5696 25.3587 67.5724 27.3189C66.5838 29.2791 65.152 30.7876 63.277 31.8445C61.402 32.8928 59.1349 33.4169 56.4759 33.4169ZM51.9503 29.9652H56.2585C58.2528 29.9652 59.9105 29.5902 61.2315 28.8402C62.5526 28.0817 63.5412 26.9865 64.1974 25.5547C64.8537 24.1143 65.1818 22.3587 65.1818 20.2876C65.1818 18.2337 64.8537 16.4908 64.1974 15.0589C63.5497 13.6271 62.5824 12.5405 61.2955 11.799C60.0085 11.0575 58.4105 10.6868 56.5014 10.6868H51.9503V29.9652Z" fill="#262626"/>
<defs>
<clipPath id="clip0_1513_5528">
<rect width="40" height="40" fill="white"/>
</clipPath>
<clipPath id="clip1_1513_5528">
<rect width="18.75" height="18" fill="white" transform="translate(11 11)"/>
</clipPath>
</defs>
</svg>
