<svg width="971" height="328" viewBox="0 0 971 328" fill="none" xmlns="http://www.w3.org/2000/svg">
<path d="M107.406 126.922C121.629 153.406 148.603 229.915 142.718 324.079" stroke="#E2DED9" stroke-width="5.88527" stroke-linecap="round"/>
<path d="M44.1392 207.845C58.3619 234.329 113.291 247.57 142.717 324.079" stroke="#E2DED9" stroke-width="5.88527" stroke-linecap="round"/>
<path d="M214.812 165.177C163.316 176.947 148.603 229.915 142.718 324.079" stroke="#E2DED9" stroke-width="5.88527" stroke-linecap="round"/>
<g clip-path="url(#clip0_1527_6276)">
<path d="M101.106 56.9764C110.407 45.4489 128.658 55.9871 123.325 69.8033C137.145 64.4703 147.679 82.7214 136.152 92.0222C150.786 94.3146 150.786 115.387 136.152 117.68C147.679 126.981 137.141 145.232 123.325 139.899C128.658 153.718 110.407 164.253 101.106 152.726C98.8136 167.359 77.7408 167.359 75.4485 152.726C66.1477 164.253 47.8965 153.715 53.2295 139.899C39.4097 145.232 28.8751 126.981 40.4026 117.68C25.7688 115.387 25.7688 94.3146 40.4026 92.0222C28.8751 82.7214 39.4134 64.4703 53.2295 69.8033C47.9002 55.9835 66.1477 45.4489 75.4485 56.9764C77.7408 42.3426 98.8136 42.3426 101.106 56.9764Z" fill="#56AFF9"/>
<circle cx="88.2789" cy="104.853" r="29.4263" fill="white"/>
</g>
<g clip-path="url(#clip1_1527_6276)">
<path d="M233.524 86.4026C242.825 74.8752 261.076 85.4134 255.743 99.2295C269.563 93.8965 280.098 112.148 268.57 121.448C283.204 123.741 283.204 144.814 268.57 147.106C280.098 156.407 269.559 174.658 255.743 169.325C261.076 183.145 242.825 193.679 233.524 182.152C231.232 196.786 210.159 196.786 207.867 182.152C198.566 193.679 180.315 183.141 185.648 169.325C171.828 174.658 161.294 156.407 172.821 147.106C158.187 144.814 158.187 123.741 172.821 121.448C161.294 112.148 171.832 93.8965 185.648 99.2295C180.319 85.4097 198.566 74.8752 207.867 86.4026C210.159 71.7688 231.232 71.7688 233.524 86.4026Z" fill="#FFB100"/>
<circle cx="220.697" cy="134.279" r="29.4263" fill="white"/>
</g>
<g clip-path="url(#clip2_1527_6276)">
<path d="M71.6797 204.108C80.9805 192.581 99.2316 203.119 93.8986 216.935C107.718 211.602 118.253 229.853 106.726 239.154C121.359 241.446 121.359 262.519 106.726 264.812C118.253 274.112 107.715 292.363 93.8986 287.03C99.2316 300.85 80.9805 311.385 71.6797 299.857C69.3873 314.491 48.3145 314.491 46.0222 299.857C36.7214 311.385 18.4702 300.847 23.8032 287.03C9.98345 292.363 -0.551121 274.112 10.9763 264.812C-3.65747 262.519 -3.65747 241.446 10.9763 239.154C-0.551121 229.853 9.9871 211.602 23.8032 216.935C18.4739 203.115 36.7214 192.581 46.0222 204.108C48.3145 189.474 69.3873 189.474 71.6797 204.108Z" fill="#D0318D"/>
<circle cx="58.8526" cy="251.984" r="29.4263" fill="white"/>
</g>
<path d="M791.5 77.5C813.356 102.078 856 224 827.833 324.079" stroke="#E2DED9" stroke-width="5.88527" stroke-linecap="round"/>
<path d="M926.411 207.845C912.188 234.329 857.259 247.57 827.833 324.079" stroke="#E2DED9" stroke-width="5.88527" stroke-linecap="round"/>
<path d="M768.5 197C819.996 208.771 821.5 276.5 827.833 324.079" stroke="#E2DED9" stroke-width="5.88527" stroke-linecap="round"/>
<g clip-path="url(#clip3_1527_6276)">
<path d="M719.026 144.976C709.725 133.449 691.474 143.987 696.807 157.803C682.987 152.47 672.452 170.721 683.98 180.022C669.346 182.315 669.346 203.387 683.98 205.68C672.452 214.981 682.991 233.232 696.807 227.899C691.474 241.718 709.725 252.253 719.026 240.726C721.318 255.359 742.391 255.359 744.683 240.726C753.984 252.253 772.235 241.715 766.902 227.899C780.722 233.232 791.256 214.981 779.729 205.68C794.363 203.387 794.363 182.315 779.729 180.022C791.256 170.721 780.718 152.47 766.902 157.803C772.231 143.983 753.984 133.449 744.683 144.976C742.391 130.343 721.318 130.343 719.026 144.976Z" fill="#00C978"/>
<circle cx="29.4263" cy="29.4263" r="29.4263" transform="matrix(-1 0 0 1 761.279 163.426)" fill="white"/>
</g>
<g clip-path="url(#clip4_1527_6276)">
<path d="M763.026 10.9763C753.725 -0.551182 735.474 9.98704 740.807 23.8032C726.987 18.4702 716.452 36.7213 727.98 46.0221C713.346 48.3145 713.346 69.3873 727.98 71.6796C716.452 80.9804 726.991 99.2316 740.807 93.8986C735.474 107.718 753.725 118.253 763.026 106.725C765.318 121.359 786.391 121.359 788.683 106.725C797.984 118.253 816.235 107.715 810.902 93.8986C824.722 99.2316 835.256 80.9804 823.729 71.6796C838.363 69.3873 838.363 48.3145 823.729 46.0221C835.256 36.7213 824.718 18.4702 810.902 23.8032C816.231 9.98339 797.984 -0.551182 788.683 10.9763C786.391 -3.65753 765.318 -3.65753 763.026 10.9763Z" fill="#FF5703"/>
<circle cx="29.4263" cy="29.4263" r="29.4263" transform="matrix(-1 0 0 1 805.279 29.4264)" fill="white"/>
</g>
<g clip-path="url(#clip5_1527_6276)">
<path d="M898.87 204.108C889.57 192.581 871.318 203.119 876.651 216.935C862.832 211.602 852.297 229.853 863.824 239.154C849.191 241.446 849.191 262.519 863.824 264.812C852.297 274.112 862.835 292.363 876.651 287.03C871.318 300.85 889.57 311.385 898.87 299.857C901.163 314.491 922.236 314.491 924.528 299.857C933.829 311.385 952.08 300.847 946.747 287.03C960.567 292.363 971.101 274.112 959.574 264.812C974.208 262.519 974.208 241.446 959.574 239.154C971.101 229.853 960.563 211.602 946.747 216.935C952.076 203.115 933.829 192.581 924.528 204.108C922.236 189.474 901.163 189.474 898.87 204.108Z" fill="#FFB100"/>
<circle cx="29.4263" cy="29.4263" r="29.4263" transform="matrix(-1 0 0 1 941.124 222.558)" fill="white"/>
</g>
<defs>
<clipPath id="clip0_1527_6276">
<rect width="117.705" height="117.705" fill="white" transform="translate(29.4263 46)"/>
</clipPath>
<clipPath id="clip1_1527_6276">
<rect width="117.705" height="117.705" fill="white" transform="translate(161.845 75.4264)"/>
</clipPath>
<clipPath id="clip2_1527_6276">
<rect width="117.705" height="117.705" fill="white" transform="translate(0 193.132)"/>
</clipPath>
<clipPath id="clip3_1527_6276">
<rect width="117.705" height="117.705" fill="white" transform="matrix(-1 0 0 1 790.705 134)"/>
</clipPath>
<clipPath id="clip4_1527_6276">
<rect width="117.705" height="117.705" fill="white" transform="matrix(-1 0 0 1 834.705 0)"/>
</clipPath>
<clipPath id="clip5_1527_6276">
<rect width="117.705" height="117.705" fill="white" transform="matrix(-1 0 0 1 970.55 193.132)"/>
</clipPath>
</defs>
</svg>
