<svg width="302" height="169" viewBox="0 0 302 169" fill="none" xmlns="http://www.w3.org/2000/svg">
<rect x="0.5" y="0.5" width="301" height="168" rx="15.5" fill="white"/>
<rect x="0.5" y="0.5" width="301" height="168" rx="15.5" stroke="#F0EFEE"/>
<path d="M20.2074 18.1108H18.8778C18.8267 17.8267 18.7315 17.5767 18.5923 17.3608C18.4531 17.1449 18.2827 16.9616 18.081 16.8111C17.8793 16.6605 17.6534 16.5469 17.4034 16.4702C17.1563 16.3935 16.8935 16.3551 16.6151 16.3551C16.1122 16.3551 15.6619 16.4815 15.2642 16.7344C14.8693 16.9872 14.5568 17.358 14.3267 17.8466C14.0994 18.3352 13.9858 18.9318 13.9858 19.6364C13.9858 20.3466 14.0994 20.946 14.3267 21.4347C14.5568 21.9233 14.8707 22.2926 15.2685 22.5426C15.6662 22.7926 16.1136 22.9176 16.6108 22.9176C16.8864 22.9176 17.1477 22.8807 17.3949 22.8068C17.6449 22.7301 17.8707 22.6179 18.0724 22.4702C18.2741 22.3224 18.4446 22.142 18.5838 21.929C18.7259 21.7131 18.8239 21.4659 18.8778 21.1875L20.2074 21.1918C20.1364 21.6207 19.9986 22.0156 19.794 22.3764C19.5923 22.7344 19.3324 23.044 19.0142 23.3054C18.6989 23.5639 18.3381 23.7642 17.9318 23.9062C17.5256 24.0483 17.0824 24.1193 16.6023 24.1193C15.8466 24.1193 15.1733 23.9403 14.5824 23.5824C13.9915 23.2216 13.5256 22.706 13.1847 22.0355C12.8466 21.3651 12.6776 20.5653 12.6776 19.6364C12.6776 18.7045 12.848 17.9048 13.1889 17.2372C13.5298 16.5668 13.9957 16.0526 14.5866 15.6946C15.1776 15.3338 15.8494 15.1534 16.6023 15.1534C17.0653 15.1534 17.4972 15.2202 17.8977 15.3537C18.3011 15.4844 18.6634 15.6776 18.9844 15.9332C19.3054 16.1861 19.571 16.4957 19.7812 16.8622C19.9915 17.2259 20.1335 17.642 20.2074 18.1108ZM23.2256 24.1449C22.8108 24.1449 22.4358 24.0682 22.1006 23.9148C21.7654 23.7585 21.4997 23.5327 21.3037 23.2372C21.1105 22.9418 21.0139 22.5795 21.0139 22.1506C21.0139 21.7812 21.085 21.4773 21.227 21.2386C21.369 21 21.5608 20.8111 21.8023 20.6719C22.0438 20.5327 22.3137 20.4276 22.6119 20.3565C22.9102 20.2855 23.2142 20.2315 23.5239 20.1946C23.9159 20.1491 24.2341 20.1122 24.4784 20.0838C24.7227 20.0526 24.9003 20.0028 25.0111 19.9347C25.1219 19.8665 25.1773 19.7557 25.1773 19.6023V19.5724C25.1773 19.2003 25.0722 18.9119 24.8619 18.7074C24.6546 18.5028 24.3449 18.4006 23.933 18.4006C23.504 18.4006 23.1659 18.4957 22.9188 18.6861C22.6744 18.8736 22.5054 19.0824 22.4117 19.3125L21.2142 19.0398C21.3563 18.642 21.5637 18.321 21.8364 18.0767C22.1119 17.8295 22.4287 17.6506 22.7867 17.5398C23.1446 17.4261 23.521 17.3693 23.9159 17.3693C24.1773 17.3693 24.4543 17.4006 24.7469 17.4631C25.0423 17.5227 25.3179 17.6335 25.5736 17.7955C25.8321 17.9574 26.0438 18.1889 26.2085 18.4901C26.3733 18.7884 26.4557 19.1761 26.4557 19.6534V24H25.2114V23.1051H25.1602C25.0779 23.2699 24.9543 23.4318 24.7895 23.5909C24.6247 23.75 24.4131 23.8821 24.1546 23.9872C23.896 24.0923 23.5864 24.1449 23.2256 24.1449ZM23.5026 23.1222C23.8548 23.1222 24.156 23.0526 24.406 22.9134C24.6588 22.7741 24.8506 22.5923 24.9813 22.3679C25.1148 22.1406 25.1815 21.8977 25.1815 21.6392V20.7955C25.1361 20.8409 25.048 20.8835 24.9173 20.9233C24.7895 20.9602 24.6432 20.9929 24.4784 21.0213C24.3137 21.0469 24.1531 21.071 23.9969 21.0938C23.8406 21.1136 23.71 21.1307 23.6048 21.1449C23.3577 21.1761 23.1318 21.2287 22.9273 21.3026C22.7256 21.3764 22.5637 21.483 22.4415 21.6222C22.3222 21.7585 22.2625 21.9403 22.2625 22.1676C22.2625 22.483 22.379 22.7216 22.6119 22.8835C22.8449 23.0426 23.1418 23.1222 23.5026 23.1222ZM30.8482 17.4545V18.4773H27.2729V17.4545H30.8482ZM28.2317 15.8864H29.5059V22.0781C29.5059 22.3253 29.5428 22.5114 29.6166 22.6364C29.6905 22.7585 29.7857 22.8423 29.9022 22.8878C30.0215 22.9304 30.1507 22.9517 30.2899 22.9517C30.3922 22.9517 30.4817 22.9446 30.5584 22.9304C30.6351 22.9162 30.6948 22.9048 30.7374 22.8963L30.9675 23.9489C30.8936 23.9773 30.7885 24.0057 30.6522 24.0341C30.5158 24.0653 30.3453 24.0824 30.1408 24.0852C29.8056 24.0909 29.4931 24.0312 29.2033 23.9062C28.9135 23.7812 28.6791 23.5881 28.5002 23.3267C28.3212 23.0653 28.2317 22.7372 28.2317 22.3423V15.8864ZM34.6483 24.1321C34.0035 24.1321 33.4481 23.9943 32.9821 23.7188C32.5191 23.4403 32.1611 23.0497 31.9083 22.5469C31.6583 22.0412 31.5333 21.4489 31.5333 20.7699C31.5333 20.0994 31.6583 19.5085 31.9083 18.9972C32.1611 18.4858 32.5134 18.0866 32.9651 17.7997C33.4196 17.5128 33.9509 17.3693 34.5588 17.3693C34.9282 17.3693 35.2861 17.4304 35.6327 17.5526C35.9793 17.6747 36.2904 17.8665 36.566 18.1278C36.8415 18.3892 37.0588 18.7287 37.2179 19.1463C37.377 19.5611 37.4566 20.0653 37.4566 20.6591V21.1108H32.2535V20.1562H36.208C36.208 19.821 36.1398 19.5241 36.0035 19.2656C35.8671 19.0043 35.6753 18.7983 35.4282 18.6477C35.1838 18.4972 34.8969 18.4219 34.5674 18.4219C34.2094 18.4219 33.8969 18.5099 33.6299 18.6861C33.3657 18.8594 33.1611 19.0866 33.0162 19.3679C32.8742 19.6463 32.8032 19.9489 32.8032 20.2756V21.0213C32.8032 21.4588 32.8799 21.831 33.0333 22.1378C33.1895 22.4446 33.4069 22.679 33.6853 22.8409C33.9637 23 34.289 23.0795 34.6611 23.0795C34.9026 23.0795 35.1228 23.0455 35.3216 22.9773C35.5205 22.9062 35.6924 22.8011 35.8373 22.6619C35.9821 22.5227 36.0929 22.3509 36.1696 22.1463L37.3756 22.3636C37.279 22.7187 37.1057 23.0298 36.8557 23.2969C36.6086 23.5611 36.2975 23.767 35.9225 23.9148C35.5503 24.0597 35.1256 24.1321 34.6483 24.1321ZM41.2546 26.5909C40.7347 26.5909 40.2873 26.5227 39.9123 26.3864C39.5401 26.25 39.2361 26.0696 39.0003 25.8452C38.7645 25.6207 38.5884 25.375 38.4719 25.108L39.5671 24.6562C39.6438 24.7812 39.7461 24.9134 39.8739 25.0526C40.0046 25.1946 40.1807 25.3153 40.4023 25.4148C40.6268 25.5142 40.9151 25.5639 41.2674 25.5639C41.7503 25.5639 42.1495 25.446 42.4648 25.2102C42.7802 24.9773 42.9378 24.6051 42.9378 24.0938V22.8068H42.8569C42.7802 22.946 42.6694 23.1009 42.5245 23.2713C42.3824 23.4418 42.1864 23.5895 41.9364 23.7145C41.6864 23.8395 41.3611 23.902 40.9606 23.902C40.4435 23.902 39.9776 23.7812 39.5628 23.5398C39.1509 23.2955 38.8242 22.9361 38.5827 22.4616C38.3441 21.9844 38.2248 21.3977 38.2248 20.7017C38.2248 20.0057 38.3427 19.4091 38.5785 18.9119C38.8171 18.4148 39.1438 18.0341 39.5586 17.7699C39.9734 17.5028 40.4435 17.3693 40.9691 17.3693C41.3753 17.3693 41.7035 17.4375 41.9535 17.5739C42.2035 17.7074 42.3981 17.8636 42.5373 18.0426C42.6793 18.2216 42.7887 18.3793 42.8654 18.5156H42.9591V17.4545H44.2077V24.1449C44.2077 24.7074 44.077 25.169 43.8157 25.5298C43.5543 25.8906 43.2006 26.1577 42.7546 26.331C42.3114 26.5043 41.8114 26.5909 41.2546 26.5909ZM41.2418 22.8452C41.6083 22.8452 41.918 22.7599 42.1708 22.5895C42.4265 22.4162 42.6197 22.169 42.7503 21.848C42.8839 21.5241 42.9506 21.1364 42.9506 20.6847C42.9506 20.2443 42.8853 19.8565 42.7546 19.5213C42.6239 19.1861 42.4322 18.9247 42.1793 18.7372C41.9265 18.5469 41.614 18.4517 41.2418 18.4517C40.8583 18.4517 40.5387 18.5511 40.283 18.75C40.0273 18.946 39.8341 19.2131 39.7035 19.5511C39.5756 19.8892 39.5117 20.267 39.5117 20.6847C39.5117 21.1136 39.577 21.4901 39.7077 21.8139C39.8384 22.1378 40.0316 22.3906 40.2873 22.5724C40.5458 22.7543 40.864 22.8452 41.2418 22.8452ZM48.3136 24.1321C47.7 24.1321 47.1645 23.9915 46.7071 23.7102C46.2497 23.429 45.8946 23.0355 45.6418 22.5298C45.3889 22.0241 45.2625 21.4332 45.2625 20.7571C45.2625 20.0781 45.3889 19.4844 45.6418 18.9759C45.8946 18.4673 46.2497 18.0724 46.7071 17.7912C47.1645 17.5099 47.7 17.3693 48.3136 17.3693C48.9273 17.3693 49.4628 17.5099 49.9202 17.7912C50.3776 18.0724 50.7327 18.4673 50.9855 18.9759C51.2384 19.4844 51.3648 20.0781 51.3648 20.7571C51.3648 21.4332 51.2384 22.0241 50.9855 22.5298C50.7327 23.0355 50.3776 23.429 49.9202 23.7102C49.4628 23.9915 48.9273 24.1321 48.3136 24.1321ZM48.3179 23.0625C48.7156 23.0625 49.0452 22.9574 49.3065 22.7472C49.5679 22.5369 49.7611 22.2571 49.8861 21.9077C50.0139 21.5582 50.0778 21.1733 50.0778 20.7528C50.0778 20.3352 50.0139 19.9517 49.8861 19.6023C49.7611 19.25 49.5679 18.9673 49.3065 18.7543C49.0452 18.5412 48.7156 18.4347 48.3179 18.4347C47.9173 18.4347 47.5849 18.5412 47.3207 18.7543C47.0594 18.9673 46.8648 19.25 46.7369 19.6023C46.6119 19.9517 46.5494 20.3352 46.5494 20.7528C46.5494 21.1733 46.6119 21.5582 46.7369 21.9077C46.8648 22.2571 47.0594 22.5369 47.3207 22.7472C47.5849 22.9574 47.9173 23.0625 48.3179 23.0625ZM52.427 24V17.4545H53.6585V18.4943H53.7267C53.846 18.142 54.0563 17.8651 54.3574 17.6634C54.6614 17.4588 55.0051 17.3565 55.3887 17.3565C55.4682 17.3565 55.5619 17.3594 55.6699 17.3651C55.7807 17.3707 55.8673 17.3778 55.9298 17.3864V18.6051C55.8787 18.5909 55.7878 18.5753 55.6571 18.5582C55.5264 18.5384 55.3958 18.5284 55.2651 18.5284C54.9639 18.5284 54.6955 18.5923 54.4597 18.7202C54.2267 18.8452 54.0421 19.0199 53.9057 19.2443C53.7693 19.4659 53.7012 19.7187 53.7012 20.0028V24H52.427ZM57.6771 26.4545C57.4867 26.4545 57.3135 26.4389 57.1572 26.4077C57.001 26.3793 56.8845 26.348 56.8078 26.3139L57.1146 25.2699C57.3475 25.3324 57.5549 25.3594 57.7367 25.3509C57.9186 25.3423 58.0791 25.2741 58.2183 25.1463C58.3603 25.0185 58.4853 24.8097 58.5933 24.5199L58.751 24.0852L56.3561 17.4545H57.7197L59.3774 22.5341H59.4456L61.1032 17.4545H62.4711L59.7737 24.8736C59.6487 25.2145 59.4896 25.5028 59.2964 25.7386C59.1032 25.9773 58.8731 26.1563 58.6061 26.2756C58.339 26.3949 58.0294 26.4545 57.6771 26.4545ZM64.1481 24.081C63.9151 24.081 63.7148 23.9986 63.5472 23.8338C63.3796 23.6662 63.2958 23.4645 63.2958 23.2287C63.2958 22.9957 63.3796 22.7969 63.5472 22.6321C63.7148 22.4645 63.9151 22.3807 64.1481 22.3807C64.381 22.3807 64.5813 22.4645 64.7489 22.6321C64.9165 22.7969 65.0003 22.9957 65.0003 23.2287C65.0003 23.3849 64.9606 23.5284 64.881 23.6591C64.8043 23.7869 64.702 23.8892 64.5742 23.9659C64.4463 24.0426 64.3043 24.081 64.1481 24.081ZM64.1481 19.3168C63.9151 19.3168 63.7148 19.233 63.5472 19.0653C63.3796 18.8977 63.2958 18.6974 63.2958 18.4645C63.2958 18.2315 63.3796 18.0327 63.5472 17.8679C63.7148 17.7003 63.9151 17.6165 64.1481 17.6165C64.381 17.6165 64.5813 17.7003 64.7489 17.8679C64.9165 18.0327 65.0003 18.2315 65.0003 18.4645C65.0003 18.6207 64.9606 18.7642 64.881 18.8949C64.8043 19.0227 64.702 19.125 64.5742 19.2017C64.4463 19.2784 64.3043 19.3168 64.1481 19.3168ZM69.2651 24V15.2727H72.3759C73.0548 15.2727 73.6173 15.3963 74.0634 15.6435C74.5094 15.8906 74.8432 16.2287 75.0648 16.6577C75.2864 17.0838 75.3972 17.5639 75.3972 18.098C75.3972 18.6349 75.2849 19.1179 75.0605 19.5469C74.8389 19.973 74.5037 20.3111 74.0548 20.5611C73.6088 20.8082 73.0477 20.9318 72.3716 20.9318H70.2324V19.8153H72.2523C72.6813 19.8153 73.0293 19.7415 73.2963 19.5938C73.5634 19.4432 73.7594 19.2386 73.8844 18.9801C74.0094 18.7216 74.0719 18.4276 74.0719 18.098C74.0719 17.7685 74.0094 17.4759 73.8844 17.2202C73.7594 16.9645 73.5619 16.7642 73.292 16.6193C73.025 16.4744 72.6727 16.402 72.2352 16.402H70.5818V24H69.2651ZM77.7527 15.2727V24H76.4786V15.2727H77.7527ZM83.2532 21.2855V17.4545H84.5316V24H83.2787V22.8665H83.2105C83.06 23.2159 82.8185 23.5071 82.4861 23.7401C82.1566 23.9702 81.7461 24.0852 81.2546 24.0852C80.8341 24.0852 80.462 23.9929 80.1381 23.8082C79.8171 23.6207 79.5642 23.3438 79.3796 22.9773C79.1978 22.6108 79.1068 22.1577 79.1068 21.6179V17.4545H80.381V21.4645C80.381 21.9105 80.5046 22.2656 80.7517 22.5298C80.9989 22.794 81.3199 22.9261 81.7148 22.9261C81.9534 22.9261 82.1907 22.8665 82.4264 22.7472C82.6651 22.6278 82.8625 22.4474 83.0188 22.206C83.1779 21.9645 83.256 21.6577 83.2532 21.2855ZM85.8836 24V17.4545H87.1066V18.5199H87.1875C87.3239 18.1591 87.5469 17.8778 87.8566 17.6761C88.1662 17.4716 88.537 17.3693 88.9688 17.3693C89.4063 17.3693 89.7728 17.4716 90.0682 17.6761C90.3665 17.8807 90.5867 18.1619 90.7287 18.5199H90.7969C90.9532 18.1705 91.2017 17.892 91.5427 17.6847C91.8836 17.4744 92.2898 17.3693 92.7614 17.3693C93.3552 17.3693 93.8395 17.5554 94.2145 17.9276C94.5924 18.2997 94.7813 18.8608 94.7813 19.6108V24H93.5071V19.7301C93.5071 19.2869 93.3864 18.9659 93.1449 18.767C92.9035 18.5682 92.6151 18.4688 92.2799 18.4688C91.8651 18.4688 91.5427 18.5966 91.3125 18.8523C91.0824 19.1051 90.9674 19.4304 90.9674 19.8281V24H89.6975V19.6491C89.6975 19.294 89.5867 19.0085 89.3651 18.7926C89.1435 18.5767 88.8552 18.4688 88.5 18.4688C88.2586 18.4688 88.0356 18.5327 87.831 18.6605C87.6293 18.7855 87.466 18.9602 87.341 19.1847C87.2188 19.4091 87.1577 19.669 87.1577 19.9645V24H85.8836ZM96.2313 24V15.2727H97.5055V18.5156H97.5822C97.656 18.3793 97.7626 18.2216 97.9018 18.0426C98.041 17.8636 98.2341 17.7074 98.4813 17.5739C98.7285 17.4375 99.0552 17.3693 99.4614 17.3693C99.9898 17.3693 100.461 17.5028 100.876 17.7699C101.291 18.0369 101.616 18.4219 101.852 18.9247C102.091 19.4276 102.21 20.0327 102.21 20.7401C102.21 21.4474 102.092 22.054 101.856 22.5597C101.621 23.0625 101.297 23.4503 100.885 23.723C100.473 23.9929 100.003 24.1278 99.4742 24.1278C99.0765 24.1278 98.7512 24.0611 98.4984 23.9276C98.2484 23.794 98.0523 23.6378 97.9103 23.4588C97.7682 23.2798 97.6589 23.1207 97.5822 22.9815H97.4756V24H96.2313ZM97.4799 20.7273C97.4799 21.1875 97.5466 21.5909 97.6802 21.9375C97.8137 22.2841 98.0069 22.5554 98.2597 22.7514C98.5126 22.9446 98.8222 23.0412 99.1887 23.0412C99.5694 23.0412 99.8876 22.9403 100.143 22.7386C100.399 22.5341 100.592 22.2571 100.723 21.9077C100.856 21.5582 100.923 21.1648 100.923 20.7273C100.923 20.2955 100.858 19.9077 100.727 19.5639C100.599 19.2202 100.406 18.9489 100.147 18.75C99.8918 18.5511 99.5722 18.4517 99.1887 18.4517C98.8194 18.4517 98.5069 18.5469 98.2512 18.7372C97.9984 18.9276 97.8066 19.1932 97.6759 19.5341C97.5452 19.875 97.4799 20.2727 97.4799 20.7273ZM103.281 24V17.4545H104.555V24H103.281ZM103.924 16.4446C103.703 16.4446 103.512 16.3707 103.353 16.223C103.197 16.0724 103.119 15.8935 103.119 15.6861C103.119 15.4759 103.197 15.2969 103.353 15.1491C103.512 14.9986 103.703 14.9233 103.924 14.9233C104.146 14.9233 104.335 14.9986 104.491 15.1491C104.65 15.2969 104.73 15.4759 104.73 15.6861C104.73 15.8935 104.65 16.0724 104.491 16.223C104.335 16.3707 104.146 16.4446 103.924 16.4446ZM107.183 20.1136V24H105.909V17.4545H107.132V18.5199H107.213C107.364 18.1733 107.599 17.8949 107.92 17.6847C108.244 17.4744 108.652 17.3693 109.143 17.3693C109.589 17.3693 109.98 17.4631 110.315 17.6506C110.651 17.8352 110.91 18.1108 111.095 18.4773C111.28 18.8437 111.372 19.2969 111.372 19.8366V24H110.098V19.9901C110.098 19.5156 109.974 19.1449 109.727 18.8778C109.48 18.608 109.141 18.473 108.709 18.473C108.413 18.473 108.151 18.5369 107.92 18.6648C107.693 18.7926 107.513 18.9801 107.379 19.2273C107.249 19.4716 107.183 19.767 107.183 20.1136ZM115.465 26.5909C114.945 26.5909 114.498 26.5227 114.123 26.3864C113.751 26.25 113.447 26.0696 113.211 25.8452C112.975 25.6207 112.799 25.375 112.683 25.108L113.778 24.6562C113.854 24.7812 113.957 24.9134 114.085 25.0526C114.215 25.1946 114.391 25.3153 114.613 25.4148C114.837 25.5142 115.126 25.5639 115.478 25.5639C115.961 25.5639 116.36 25.446 116.675 25.2102C116.991 24.9773 117.148 24.6051 117.148 24.0938V22.8068H117.067C116.991 22.946 116.88 23.1009 116.735 23.2713C116.593 23.4418 116.397 23.5895 116.147 23.7145C115.897 23.8395 115.572 23.902 115.171 23.902C114.654 23.902 114.188 23.7812 113.773 23.5398C113.362 23.2955 113.035 22.9361 112.793 22.4616C112.555 21.9844 112.435 21.3977 112.435 20.7017C112.435 20.0057 112.553 19.4091 112.789 18.9119C113.028 18.4148 113.354 18.0341 113.769 17.7699C114.184 17.5028 114.654 17.3693 115.18 17.3693C115.586 17.3693 115.914 17.4375 116.164 17.5739C116.414 17.7074 116.609 17.8636 116.748 18.0426C116.89 18.2216 116.999 18.3793 117.076 18.5156H117.17V17.4545H118.418V24.1449C118.418 24.7074 118.288 25.169 118.026 25.5298C117.765 25.8906 117.411 26.1577 116.965 26.331C116.522 26.5043 116.022 26.5909 115.465 26.5909ZM115.452 22.8452C115.819 22.8452 116.129 22.7599 116.381 22.5895C116.637 22.4162 116.83 22.169 116.961 21.848C117.094 21.5241 117.161 21.1364 117.161 20.6847C117.161 20.2443 117.096 19.8565 116.965 19.5213C116.835 19.1861 116.643 18.9247 116.39 18.7372C116.137 18.5469 115.825 18.4517 115.452 18.4517C115.069 18.4517 114.749 18.5511 114.494 18.75C114.238 18.946 114.045 19.2131 113.914 19.5511C113.786 19.8892 113.722 20.267 113.722 20.6847C113.722 21.1136 113.788 21.4901 113.918 21.8139C114.049 22.1378 114.242 22.3906 114.498 22.5724C114.756 22.7543 115.075 22.8452 115.452 22.8452Z" fill="#B7AFA9"/>
<rect x="12.5" y="43.5" width="277" height="63" rx="7.5" fill="white"/>
<rect x="12.5" y="43.5" width="277" height="63" rx="7.5" stroke="#F5F2F0"/>
<path d="M31.1122 69L28.2884 58.8182H29.9041L31.8878 66.7031H31.9822L34.0455 58.8182H35.6463L37.7095 66.7081H37.804L39.7827 58.8182H41.4034L38.5746 69H37.0284L34.8857 61.3736H34.8061L32.6634 69H31.1122ZM43.7352 69.169C43.2513 69.169 42.8138 69.0795 42.4227 68.9006C42.0316 68.7183 41.7217 68.4548 41.493 68.1101C41.2676 67.7654 41.1549 67.3428 41.1549 66.8423C41.1549 66.4115 41.2378 66.0568 41.4035 65.7784C41.5692 65.5 41.7929 65.2796 42.0747 65.1172C42.3564 64.9548 42.6713 64.8321 43.0193 64.7493C43.3673 64.6664 43.7219 64.6035 44.0832 64.5604C44.5406 64.5073 44.9118 64.4643 45.1968 64.4311C45.4819 64.3946 45.689 64.3366 45.8183 64.2571C45.9475 64.1776 46.0122 64.0483 46.0122 63.8693V63.8345C46.0122 63.4003 45.8895 63.0639 45.6443 62.8253C45.4023 62.5866 45.0411 62.4673 44.5605 62.4673C44.06 62.4673 43.6656 62.5784 43.3772 62.8004C43.0922 63.0192 42.895 63.2628 42.7856 63.5312L41.3886 63.2131C41.5543 62.7491 41.7963 62.3745 42.1144 62.0895C42.4359 61.8011 42.8055 61.5923 43.2231 61.4631C43.6407 61.3305 44.0799 61.2642 44.5406 61.2642C44.8455 61.2642 45.1687 61.3007 45.51 61.3736C45.8547 61.4432 46.1762 61.5724 46.4745 61.7614C46.7761 61.9503 47.0231 62.2204 47.2153 62.5717C47.4075 62.9197 47.5037 63.3722 47.5037 63.929V69H46.0519V67.956H45.9923C45.8962 68.1482 45.752 68.3371 45.5598 68.5227C45.3675 68.7083 45.1206 68.8625 44.819 68.9851C44.5174 69.1077 44.1561 69.169 43.7352 69.169ZM44.0583 67.9759C44.4693 67.9759 44.8206 67.8946 45.1123 67.7322C45.4073 67.5698 45.631 67.3577 45.7835 67.0959C45.9393 66.8307 46.0171 66.5473 46.0171 66.2457V65.2614C45.9641 65.3144 45.8614 65.3641 45.7089 65.4105C45.5598 65.4536 45.3891 65.4917 45.1968 65.5249C45.0046 65.5547 44.8173 65.5829 44.635 65.6094C44.4528 65.6326 44.3003 65.6525 44.1777 65.669C43.8893 65.7055 43.6258 65.7668 43.3872 65.853C43.1519 65.9392 42.9629 66.0634 42.8204 66.2259C42.6812 66.3849 42.6116 66.5971 42.6116 66.8622C42.6116 67.2301 42.7475 67.5085 43.0193 67.6974C43.2911 67.883 43.6374 67.9759 44.0583 67.9759ZM52.6282 61.3636V62.5568H48.4571V61.3636H52.6282ZM49.5757 59.5341H51.0622V66.7578C51.0622 67.0462 51.1053 67.2633 51.1914 67.4091C51.2776 67.5516 51.3886 67.6494 51.5245 67.7024C51.6637 67.7521 51.8145 67.777 51.9769 67.777C52.0963 67.777 52.2007 67.7687 52.2901 67.7521C52.3796 67.7356 52.4492 67.7223 52.499 67.7124L52.7674 68.9403C52.6812 68.9735 52.5586 69.0066 52.3995 69.0398C52.2404 69.0762 52.0416 69.0961 51.8029 69.0994C51.4118 69.1061 51.0473 69.0365 50.7092 68.8906C50.3711 68.7448 50.0977 68.5194 49.8889 68.2145C49.6801 67.9096 49.5757 67.5268 49.5757 67.0661V59.5341ZM57.0617 69.1541C56.3094 69.1541 55.6614 68.9934 55.1178 68.6719C54.5776 68.3471 54.16 67.8913 53.865 67.3047C53.5733 66.7147 53.4275 66.0237 53.4275 65.2315C53.4275 64.4493 53.5733 63.7599 53.865 63.1634C54.16 62.5668 54.571 62.1011 55.098 61.7663C55.6283 61.4316 56.248 61.2642 56.9573 61.2642C57.3882 61.2642 57.8058 61.3355 58.2102 61.478C58.6145 61.6205 58.9775 61.8442 59.2989 62.1491C59.6204 62.4541 59.874 62.8501 60.0596 63.3374C60.2452 63.8213 60.338 64.4096 60.338 65.1023V65.6293H54.2677V64.5156H58.8813C58.8813 64.1245 58.8018 63.7782 58.6427 63.4766C58.4836 63.1716 58.2599 62.9313 57.9715 62.7557C57.6865 62.58 57.3517 62.4922 56.9673 62.4922C56.5497 62.4922 56.1851 62.5949 55.8735 62.8004C55.5653 63.0026 55.3266 63.2678 55.1576 63.5959C54.9919 63.9207 54.909 64.2737 54.909 64.6548V65.5249C54.909 66.0353 54.9985 66.4695 55.1775 66.8274C55.3598 67.1854 55.6133 67.4588 55.9382 67.6477C56.263 67.8333 56.6425 67.9261 57.0766 67.9261C57.3584 67.9261 57.6152 67.8864 57.8472 67.8068C58.0793 67.724 58.2798 67.6013 58.4488 67.4389C58.6178 67.2765 58.7471 67.076 58.8366 66.8374L60.2436 67.0909C60.1309 67.5052 59.9287 67.8681 59.637 68.1797C59.3487 68.4879 58.9857 68.7282 58.5482 68.9006C58.1141 69.0696 57.6186 69.1541 57.0617 69.1541ZM61.5673 69V61.3636H63.0041V62.5767H63.0837C63.2229 62.1657 63.4681 61.8426 63.8195 61.6072C64.1741 61.3686 64.5751 61.2493 65.0226 61.2493C65.1154 61.2493 65.2248 61.2526 65.3507 61.2592C65.48 61.2659 65.5811 61.2741 65.654 61.2841V62.706C65.5943 62.6894 65.4883 62.6712 65.3358 62.6513C65.1833 62.6281 65.0309 62.6165 64.8784 62.6165C64.5271 62.6165 64.2139 62.6911 63.9388 62.8402C63.667 62.986 63.4516 63.1899 63.2925 63.4517C63.1334 63.7102 63.0538 64.0052 63.0538 64.3366V69H61.5673ZM71.292 64.4659V69H69.8055V58.8182H71.2721V62.6065H71.3665C71.5455 62.1955 71.819 61.8691 72.1869 61.6271C72.5548 61.3852 73.0353 61.2642 73.6286 61.2642C74.1523 61.2642 74.6097 61.3719 75.0008 61.5874C75.3952 61.8028 75.7001 62.1243 75.9155 62.5518C76.1343 62.9761 76.2437 63.5064 76.2437 64.1428V69H74.7572V64.3217C74.7572 63.7616 74.613 63.3274 74.3246 63.0192C74.0363 62.7076 73.6352 62.5518 73.1215 62.5518C72.7702 62.5518 72.4553 62.6264 72.1769 62.7756C71.9018 62.9247 71.6847 63.1435 71.5256 63.4318C71.3699 63.7169 71.292 64.0616 71.292 64.4659ZM80.0296 69.169C79.5457 69.169 79.1082 69.0795 78.7171 68.9006C78.326 68.7183 78.0161 68.4548 77.7875 68.1101C77.5621 67.7654 77.4494 67.3428 77.4494 66.8423C77.4494 66.4115 77.5322 66.0568 77.698 65.7784C77.8637 65.5 78.0874 65.2796 78.3691 65.1172C78.6509 64.9548 78.9657 64.8321 79.3137 64.7493C79.6617 64.6664 80.0164 64.6035 80.3777 64.5604C80.835 64.5073 81.2062 64.4643 81.4913 64.4311C81.7763 64.3946 81.9835 64.3366 82.1127 64.2571C82.242 64.1776 82.3066 64.0483 82.3066 63.8693V63.8345C82.3066 63.4003 82.184 63.0639 81.9387 62.8253C81.6968 62.5866 81.3355 62.4673 80.8549 62.4673C80.3544 62.4673 79.96 62.5784 79.6717 62.8004C79.3866 63.0192 79.1894 63.2628 79.0801 63.5312L77.683 63.2131C77.8488 62.7491 78.0907 62.3745 78.4089 62.0895C78.7304 61.8011 79.1 61.5923 79.5176 61.4631C79.9352 61.3305 80.3743 61.2642 80.835 61.2642C81.14 61.2642 81.4631 61.3007 81.8045 61.3736C82.1492 61.4432 82.4707 61.5724 82.769 61.7614C83.0706 61.9503 83.3175 62.2204 83.5098 62.5717C83.702 62.9197 83.7981 63.3722 83.7981 63.929V69H82.3464V67.956H82.2867C82.1906 68.1482 82.0464 68.3371 81.8542 68.5227C81.662 68.7083 81.4151 68.8625 81.1134 68.9851C80.8118 69.1077 80.4506 69.169 80.0296 69.169ZM80.3528 67.9759C80.7638 67.9759 81.1151 67.8946 81.4068 67.7322C81.7018 67.5698 81.9255 67.3577 82.0779 67.0959C82.2337 66.8307 82.3116 66.5473 82.3116 66.2457V65.2614C82.2586 65.3144 82.1558 65.3641 82.0034 65.4105C81.8542 65.4536 81.6835 65.4917 81.4913 65.5249C81.2991 65.5547 81.1118 65.5829 80.9295 65.6094C80.7472 65.6326 80.5947 65.6525 80.4721 65.669C80.1838 65.7055 79.9203 65.7668 79.6816 65.853C79.4463 65.9392 79.2574 66.0634 79.1149 66.2259C78.9757 66.3849 78.9061 66.5971 78.9061 66.8622C78.9061 67.2301 79.0419 67.5085 79.3137 67.6974C79.5855 67.883 79.9319 67.9759 80.3528 67.9759ZM91.0803 63.228L89.733 63.4666C89.6767 63.2943 89.5872 63.1302 89.4646 62.9744C89.3453 62.8187 89.1828 62.6911 88.9774 62.5916C88.7719 62.4922 88.515 62.4425 88.2068 62.4425C87.7858 62.4425 87.4345 62.5369 87.1528 62.7259C86.8711 62.9115 86.7302 63.1518 86.7302 63.4467C86.7302 63.7019 86.8247 63.9074 87.0136 64.0632C87.2025 64.219 87.5074 64.3466 87.9284 64.446L89.1414 64.7244C89.8441 64.8868 90.3677 65.1371 90.7124 65.4751C91.0571 65.8132 91.2295 66.2524 91.2295 66.7926C91.2295 67.25 91.0969 67.6577 90.8318 68.0156C90.5699 68.3703 90.2037 68.6487 89.733 68.8509C89.2657 69.053 88.7238 69.1541 88.1073 69.1541C87.2522 69.1541 86.5545 68.9718 86.0143 68.6072C85.474 68.2393 85.1426 67.7173 85.02 67.0412L86.4568 66.8224C86.5462 67.197 86.7302 67.4804 87.0086 67.6726C87.287 67.8615 87.6499 67.956 88.0974 67.956C88.5846 67.956 88.974 67.8549 89.2657 67.6527C89.5574 67.4472 89.7032 67.197 89.7032 66.902C89.7032 66.6634 89.6137 66.4628 89.4347 66.3004C89.2591 66.138 88.989 66.0154 88.6244 65.9325L87.3318 65.6491C86.6192 65.4867 86.0922 65.2282 85.7508 64.8736C85.4127 64.5189 85.2437 64.0698 85.2437 63.5263C85.2437 63.0755 85.3696 62.6811 85.6215 62.343C85.8734 62.005 86.2214 61.7415 86.6656 61.5526C87.1097 61.3603 87.6185 61.2642 88.1918 61.2642C89.0171 61.2642 89.6668 61.4432 90.1407 61.8011C90.6147 62.1558 90.9279 62.6314 91.0803 63.228ZM97.2155 64.4659V69H95.729V61.3636H97.1558V62.6065H97.2503C97.426 62.2022 97.701 61.8774 98.0756 61.6321C98.4534 61.3868 98.929 61.2642 99.5024 61.2642C100.023 61.2642 100.479 61.3736 100.87 61.5923C101.261 61.8078 101.564 62.1293 101.779 62.5568C101.995 62.9844 102.103 63.513 102.103 64.1428V69H100.616V64.3217C100.616 63.7682 100.472 63.3357 100.184 63.0241C99.8952 62.7093 99.4991 62.5518 98.9953 62.5518C98.6506 62.5518 98.344 62.6264 98.0756 62.7756C97.8104 62.9247 97.6 63.1435 97.4442 63.4318C97.2917 63.7169 97.2155 64.0616 97.2155 64.4659ZM106.893 69.1541C106.177 69.1541 105.552 68.9901 105.018 68.6619C104.485 68.3338 104.071 67.8748 103.776 67.2848C103.481 66.6948 103.333 66.0054 103.333 65.2166C103.333 64.4245 103.481 63.7318 103.776 63.1385C104.071 62.5452 104.485 62.0845 105.018 61.7564C105.552 61.4283 106.177 61.2642 106.893 61.2642C107.609 61.2642 108.233 61.4283 108.767 61.7564C109.301 62.0845 109.715 62.5452 110.01 63.1385C110.305 63.7318 110.452 64.4245 110.452 65.2166C110.452 66.0054 110.305 66.6948 110.01 67.2848C109.715 67.8748 109.301 68.3338 108.767 68.6619C108.233 68.9901 107.609 69.1541 106.893 69.1541ZM106.898 67.9062C107.362 67.9062 107.746 67.7836 108.051 67.5384C108.356 67.2931 108.581 66.9666 108.727 66.5589C108.876 66.1513 108.951 65.7022 108.951 65.2116C108.951 64.7244 108.876 64.277 108.727 63.8693C108.581 63.4583 108.356 63.1286 108.051 62.88C107.746 62.6314 107.362 62.5071 106.898 62.5071C106.43 62.5071 106.043 62.6314 105.734 62.88C105.429 63.1286 105.202 63.4583 105.053 63.8693C104.907 64.277 104.835 64.7244 104.835 65.2116C104.835 65.7022 104.907 66.1513 105.053 66.5589C105.202 66.9666 105.429 67.2931 105.734 67.5384C106.043 67.7836 106.43 67.9062 106.898 67.9062ZM115.256 61.3636V62.5568H111.085V61.3636H115.256ZM112.204 59.5341H113.69V66.7578C113.69 67.0462 113.733 67.2633 113.82 67.4091C113.906 67.5516 114.017 67.6494 114.153 67.7024C114.292 67.7521 114.443 67.777 114.605 67.777C114.724 67.777 114.829 67.7687 114.918 67.7521C115.008 67.7356 115.077 67.7223 115.127 67.7124L115.396 68.9403C115.309 68.9735 115.187 69.0066 115.028 69.0398C114.869 69.0762 114.67 69.0961 114.431 69.0994C114.04 69.1061 113.675 69.0365 113.337 68.8906C112.999 68.7448 112.726 68.5194 112.517 68.2145C112.308 67.9096 112.204 67.5268 112.204 67.0661V59.5341ZM119.885 69V58.8182H121.372V62.6016H121.461C121.547 62.4425 121.672 62.2585 121.834 62.0497C121.996 61.8409 122.222 61.6586 122.51 61.5028C122.798 61.3438 123.18 61.2642 123.654 61.2642C124.27 61.2642 124.82 61.42 125.304 61.7315C125.788 62.0431 126.168 62.4922 126.443 63.0788C126.721 63.6655 126.86 64.3714 126.86 65.1967C126.86 66.022 126.723 66.7296 126.448 67.3196C126.173 67.9062 125.795 68.3587 125.314 68.6768C124.833 68.9917 124.285 69.1491 123.668 69.1491C123.204 69.1491 122.825 69.0713 122.53 68.9155C122.238 68.7597 122.01 68.5774 121.844 68.3686C121.678 68.1598 121.551 67.9742 121.461 67.8118H121.337V69H119.885ZM121.342 65.1818C121.342 65.7187 121.42 66.1894 121.575 66.5938C121.731 66.9981 121.957 67.3146 122.252 67.5433C122.547 67.7687 122.908 67.8814 123.335 67.8814C123.78 67.8814 124.151 67.7637 124.449 67.5284C124.747 67.2898 124.973 66.9666 125.125 66.5589C125.281 66.1513 125.359 65.6922 125.359 65.1818C125.359 64.678 125.283 64.2256 125.13 63.8246C124.981 63.4235 124.756 63.107 124.454 62.875C124.156 62.643 123.783 62.527 123.335 62.527C122.905 62.527 122.54 62.638 122.242 62.8601C121.947 63.0821 121.723 63.392 121.57 63.7898C121.418 64.1875 121.342 64.6515 121.342 65.1818ZM131.401 69.1541C130.648 69.1541 130 68.9934 129.457 68.6719C128.916 68.3471 128.499 67.8913 128.204 67.3047C127.912 66.7147 127.766 66.0237 127.766 65.2315C127.766 64.4493 127.912 63.7599 128.204 63.1634C128.499 62.5668 128.91 62.1011 129.437 61.7663C129.967 61.4316 130.587 61.2642 131.296 61.2642C131.727 61.2642 132.145 61.3355 132.549 61.478C132.953 61.6205 133.316 61.8442 133.638 62.1491C133.959 62.4541 134.213 62.8501 134.399 63.3374C134.584 63.8213 134.677 64.4096 134.677 65.1023V65.6293H128.607V64.5156H133.22C133.22 64.1245 133.141 63.7782 132.982 63.4766C132.823 63.1716 132.599 62.9313 132.31 62.7557C132.025 62.58 131.691 62.4922 131.306 62.4922C130.889 62.4922 130.524 62.5949 130.212 62.8004C129.904 63.0026 129.666 63.2678 129.497 63.5959C129.331 63.9207 129.248 64.2737 129.248 64.6548V65.5249C129.248 66.0353 129.337 66.4695 129.516 66.8274C129.699 67.1854 129.952 67.4588 130.277 67.6477C130.602 67.8333 130.981 67.9261 131.416 67.9261C131.697 67.9261 131.954 67.8864 132.186 67.8068C132.418 67.724 132.619 67.6013 132.788 67.4389C132.957 67.2765 133.086 67.076 133.175 66.8374L134.582 67.0909C134.47 67.5052 134.268 67.8681 133.976 68.1797C133.688 68.4879 133.325 68.7282 132.887 68.9006C132.453 69.0696 131.957 69.1541 131.401 69.1541ZM139.197 69.1541C138.445 69.1541 137.797 68.9934 137.254 68.6719C136.713 68.3471 136.296 67.8913 136.001 67.3047C135.709 66.7147 135.563 66.0237 135.563 65.2315C135.563 64.4493 135.709 63.7599 136.001 63.1634C136.296 62.5668 136.707 62.1011 137.234 61.7663C137.764 61.4316 138.384 61.2642 139.093 61.2642C139.524 61.2642 139.942 61.3355 140.346 61.478C140.75 61.6205 141.113 61.8442 141.435 62.1491C141.756 62.4541 142.01 62.8501 142.195 63.3374C142.381 63.8213 142.474 64.4096 142.474 65.1023V65.6293H136.403V64.5156H141.017C141.017 64.1245 140.937 63.7782 140.778 63.4766C140.619 63.1716 140.396 62.9313 140.107 62.7557C139.822 62.58 139.487 62.4922 139.103 62.4922C138.685 62.4922 138.321 62.5949 138.009 62.8004C137.701 63.0026 137.462 63.2678 137.293 63.5959C137.128 63.9207 137.045 64.2737 137.045 64.6548V65.5249C137.045 66.0353 137.134 66.4695 137.313 66.8274C137.495 67.1854 137.749 67.4588 138.074 67.6477C138.399 67.8333 138.778 67.9261 139.212 67.9261C139.494 67.9261 139.751 67.8864 139.983 67.8068C140.215 67.724 140.415 67.6013 140.585 67.4389C140.754 67.2765 140.883 67.076 140.972 66.8374L142.379 67.0909C142.267 67.5052 142.064 67.8681 141.773 68.1797C141.484 68.4879 141.121 68.7282 140.684 68.9006C140.25 69.0696 139.754 69.1541 139.197 69.1541ZM145.19 64.4659V69H143.703V61.3636H145.13V62.6065H145.224C145.4 62.2022 145.675 61.8774 146.05 61.6321C146.427 61.3868 146.903 61.2642 147.476 61.2642C147.997 61.2642 148.453 61.3736 148.844 61.5923C149.235 61.8078 149.538 62.1293 149.753 62.5568C149.969 62.9844 150.077 63.513 150.077 64.1428V69H148.59V64.3217C148.59 63.7682 148.446 63.3357 148.158 63.0241C147.869 62.7093 147.473 62.5518 146.969 62.5518C146.625 62.5518 146.318 62.6264 146.05 62.7756C145.784 62.9247 145.574 63.1435 145.418 63.4318C145.266 63.7169 145.19 64.0616 145.19 64.4659ZM154.935 69V61.3636H156.372V62.5767H156.452C156.591 62.1657 156.836 61.8426 157.187 61.6072C157.542 61.3686 157.943 61.2493 158.391 61.2493C158.483 61.2493 158.593 61.2526 158.719 61.2592C158.848 61.2659 158.949 61.2741 159.022 61.2841V62.706C158.962 62.6894 158.856 62.6712 158.704 62.6513C158.551 62.6281 158.399 62.6165 158.246 62.6165C157.895 62.6165 157.582 62.6911 157.307 62.8402C157.035 62.986 156.82 63.1899 156.66 63.4517C156.501 63.7102 156.422 64.0052 156.422 64.3366V69H154.935ZM164.726 65.8331V61.3636H166.217V69H164.756V67.6776H164.676C164.5 68.0852 164.219 68.425 163.831 68.6967C163.446 68.9652 162.967 69.0994 162.394 69.0994C161.904 69.0994 161.469 68.9917 161.091 68.7763C160.717 68.5575 160.422 68.2344 160.207 67.8068C159.994 67.3793 159.888 66.8506 159.888 66.2209V61.3636H161.375V66.0419C161.375 66.5623 161.519 66.9766 161.807 67.2848C162.096 67.593 162.47 67.7472 162.931 67.7472C163.209 67.7472 163.486 67.6776 163.761 67.5384C164.04 67.3991 164.27 67.1887 164.452 66.907C164.638 66.6252 164.729 66.2673 164.726 65.8331ZM169.281 64.4659V69H167.795V61.3636H169.221V62.6065H169.316C169.491 62.2022 169.767 61.8774 170.141 61.6321C170.519 61.3868 170.995 61.2642 171.568 61.2642C172.088 61.2642 172.544 61.3736 172.935 61.5923C173.326 61.8078 173.63 62.1293 173.845 62.5568C174.06 62.9844 174.168 63.513 174.168 64.1428V69H172.682V64.3217C172.682 63.7682 172.537 63.3357 172.249 63.0241C171.961 62.7093 171.565 62.5518 171.061 62.5518C170.716 62.5518 170.41 62.6264 170.141 62.7756C169.876 62.9247 169.665 63.1435 169.51 63.4318C169.357 63.7169 169.281 64.0616 169.281 64.4659ZM177.228 64.4659V69H175.742V61.3636H177.169V62.6065H177.263C177.439 62.2022 177.714 61.8774 178.088 61.6321C178.466 61.3868 178.942 61.2642 179.515 61.2642C180.036 61.2642 180.491 61.3736 180.882 61.5923C181.273 61.8078 181.577 62.1293 181.792 62.5568C182.008 62.9844 182.115 63.513 182.115 64.1428V69H180.629V64.3217C180.629 63.7682 180.485 63.3357 180.196 63.0241C179.908 62.7093 179.512 62.5518 179.008 62.5518C178.663 62.5518 178.357 62.6264 178.088 62.7756C177.823 62.9247 177.613 63.1435 177.457 63.4318C177.304 63.7169 177.228 64.0616 177.228 64.4659ZM183.689 69V61.3636H185.175V69H183.689ZM184.44 60.1854C184.181 60.1854 183.959 60.0992 183.773 59.9268C183.591 59.7512 183.5 59.5424 183.5 59.3004C183.5 59.0552 183.591 58.8464 183.773 58.674C183.959 58.4983 184.181 58.4105 184.44 58.4105C184.698 58.4105 184.919 58.4983 185.101 58.674C185.286 58.8464 185.379 59.0552 185.379 59.3004C185.379 59.5424 185.286 59.7512 185.101 59.9268C184.919 60.0992 184.698 60.1854 184.44 60.1854ZM188.242 64.4659V69H186.755V61.3636H188.182V62.6065H188.277C188.452 62.2022 188.727 61.8774 189.102 61.6321C189.48 61.3868 189.955 61.2642 190.529 61.2642C191.049 61.2642 191.505 61.3736 191.896 61.5923C192.287 61.8078 192.59 62.1293 192.806 62.5568C193.021 62.9844 193.129 63.513 193.129 64.1428V69H191.642V64.3217C191.642 63.7682 191.498 63.3357 191.21 63.0241C190.921 62.7093 190.525 62.5518 190.022 62.5518C189.677 62.5518 189.37 62.6264 189.102 62.7756C188.837 62.9247 188.626 63.1435 188.47 63.4318C188.318 63.7169 188.242 64.0616 188.242 64.4659ZM197.904 72.0227C197.298 72.0227 196.776 71.9432 196.338 71.7841C195.904 71.625 195.549 71.4145 195.274 71.1527C194.999 70.8909 194.794 70.6042 194.658 70.2926L195.935 69.7656C196.025 69.9115 196.144 70.0656 196.293 70.228C196.446 70.3937 196.651 70.5346 196.91 70.6506C197.172 70.7666 197.508 70.8246 197.919 70.8246C198.482 70.8246 198.948 70.687 199.316 70.4119C199.684 70.1402 199.868 69.706 199.868 69.1094V67.608H199.773C199.684 67.7704 199.555 67.951 199.386 68.1499C199.22 68.3487 198.991 68.5211 198.7 68.6669C198.408 68.8127 198.028 68.8857 197.561 68.8857C196.958 68.8857 196.414 68.7448 195.93 68.4631C195.45 68.178 195.069 67.7588 194.787 67.2053C194.509 66.6484 194.369 65.964 194.369 65.152C194.369 64.34 194.507 63.6439 194.782 63.0639C195.06 62.4839 195.442 62.0398 195.925 61.7315C196.409 61.42 196.958 61.2642 197.571 61.2642C198.045 61.2642 198.428 61.3438 198.719 61.5028C199.011 61.6586 199.238 61.8409 199.401 62.0497C199.566 62.2585 199.694 62.4425 199.783 62.6016H199.893V61.3636H201.349V69.169C201.349 69.8253 201.197 70.3639 200.892 70.7848C200.587 71.2057 200.174 71.5173 199.654 71.7195C199.137 71.9216 198.554 72.0227 197.904 72.0227ZM197.889 67.6527C198.317 67.6527 198.678 67.5533 198.973 67.3544C199.271 67.1522 199.497 66.8639 199.649 66.4893C199.805 66.1115 199.883 65.6591 199.883 65.1321C199.883 64.6184 199.807 64.166 199.654 63.7749C199.502 63.3838 199.278 63.0788 198.983 62.8601C198.688 62.638 198.323 62.527 197.889 62.527C197.442 62.527 197.069 62.643 196.771 62.875C196.472 63.1037 196.247 63.4152 196.094 63.8097C195.945 64.2041 195.871 64.6449 195.871 65.1321C195.871 65.6326 195.947 66.0717 196.099 66.4496C196.252 66.8274 196.477 67.1224 196.776 67.3345C197.077 67.5466 197.448 67.6527 197.889 67.6527ZM206.208 69V61.3636H207.695V69H206.208ZM206.959 60.1854C206.7 60.1854 206.478 60.0992 206.293 59.9268C206.11 59.7512 206.019 59.5424 206.019 59.3004C206.019 59.0552 206.11 58.8464 206.293 58.674C206.478 58.4983 206.7 58.4105 206.959 58.4105C207.217 58.4105 207.438 58.4983 207.62 58.674C207.806 58.8464 207.898 59.0552 207.898 59.3004C207.898 59.5424 207.806 59.7512 207.62 59.9268C207.438 60.0992 207.217 60.1854 206.959 60.1854ZM210.761 64.4659V69H209.274V61.3636H210.701V62.6065H210.796C210.971 62.2022 211.247 61.8774 211.621 61.6321C211.999 61.3868 212.474 61.2642 213.048 61.2642C213.568 61.2642 214.024 61.3736 214.415 61.5923C214.806 61.8078 215.109 62.1293 215.325 62.5568C215.54 62.9844 215.648 63.513 215.648 64.1428V69H214.162V64.3217C214.162 63.7682 214.017 63.3357 213.729 63.0241C213.441 62.7093 213.045 62.5518 212.541 62.5518C212.196 62.5518 211.89 62.6264 211.621 62.7756C211.356 62.9247 211.145 63.1435 210.99 63.4318C210.837 63.7169 210.761 64.0616 210.761 64.4659ZM220.507 69V61.3636H221.934V62.6065H222.028C222.187 62.1856 222.447 61.8575 222.809 61.6222C223.17 61.3835 223.602 61.2642 224.106 61.2642C224.617 61.2642 225.044 61.3835 225.389 61.6222C225.737 61.8608 225.994 62.1889 226.159 62.6065H226.239C226.421 62.1989 226.711 61.8741 227.109 61.6321C227.507 61.3868 227.981 61.2642 228.531 61.2642C229.224 61.2642 229.789 61.4813 230.226 61.9155C230.667 62.3497 230.887 63.0043 230.887 63.8793V69H229.401V64.0185C229.401 63.5014 229.26 63.1269 228.978 62.8949C228.697 62.6629 228.36 62.5469 227.969 62.5469C227.485 62.5469 227.109 62.696 226.841 62.9943C226.572 63.2893 226.438 63.6688 226.438 64.1328V69H224.956V63.924C224.956 63.5097 224.827 63.1766 224.568 62.9247C224.31 62.6728 223.974 62.5469 223.559 62.5469C223.278 62.5469 223.017 62.6214 222.779 62.7706C222.543 62.9164 222.353 63.1203 222.207 63.3821C222.064 63.6439 221.993 63.9472 221.993 64.2919V69H220.507ZM233.126 71.8636C232.904 71.8636 232.702 71.8454 232.519 71.8089C232.337 71.7758 232.201 71.7393 232.112 71.6996L232.47 70.4815C232.741 70.5545 232.983 70.5859 233.196 70.576C233.408 70.5661 233.595 70.4865 233.757 70.3374C233.923 70.1882 234.069 69.9446 234.195 69.6065L234.379 69.0994L231.585 61.3636H233.176L235.11 67.2898H235.189L237.123 61.3636H238.719L235.572 70.0192C235.426 70.4169 235.241 70.7533 235.015 71.0284C234.79 71.3068 234.521 71.5156 234.21 71.6548C233.898 71.794 233.537 71.8636 233.126 71.8636ZM31.2216 91.169C30.7377 91.169 30.3002 91.0795 29.9091 90.9006C29.518 90.7183 29.2081 90.4548 28.9794 90.1101C28.754 89.7654 28.6413 89.3428 28.6413 88.8423C28.6413 88.4115 28.7242 88.0568 28.8899 87.7784C29.0556 87.5 29.2794 87.2796 29.5611 87.1172C29.8428 86.9548 30.1577 86.8321 30.5057 86.7493C30.8537 86.6664 31.2083 86.6035 31.5696 86.5604C32.027 86.5073 32.3982 86.4643 32.6832 86.4311C32.9683 86.3946 33.1754 86.3366 33.3047 86.2571C33.4339 86.1776 33.4986 86.0483 33.4986 85.8693V85.8345C33.4986 85.4003 33.3759 85.0639 33.1307 84.8253C32.8887 84.5866 32.5275 84.4673 32.0469 84.4673C31.5464 84.4673 31.152 84.5784 30.8636 84.8004C30.5786 85.0192 30.3814 85.2628 30.272 85.5312L28.875 85.2131C29.0407 84.7491 29.2827 84.3745 29.6009 84.0895C29.9223 83.8011 30.2919 83.5923 30.7095 83.4631C31.1271 83.3305 31.5663 83.2642 32.027 83.2642C32.3319 83.2642 32.6551 83.3007 32.9964 83.3736C33.3411 83.4432 33.6626 83.5724 33.9609 83.7614C34.2625 83.9503 34.5095 84.2204 34.7017 84.5717C34.8939 84.9197 34.9901 85.3722 34.9901 85.929V91H33.5384V89.956H33.4787C33.3826 90.1482 33.2384 90.3371 33.0462 90.5227C32.8539 90.7083 32.607 90.8625 32.3054 90.9851C32.0038 91.1077 31.6425 91.169 31.2216 91.169ZM31.5447 89.9759C31.9557 89.9759 32.3071 89.8946 32.5987 89.7322C32.8937 89.5698 33.1174 89.3577 33.2699 89.0959C33.4257 88.8307 33.5036 88.5473 33.5036 88.2457V87.2614C33.4505 87.3144 33.3478 87.3641 33.1953 87.4105C33.0462 87.4536 32.8755 87.4917 32.6832 87.5249C32.491 87.5547 32.3037 87.5829 32.1214 87.6094C31.9392 87.6326 31.7867 87.6525 31.6641 87.669C31.3757 87.7055 31.1122 87.7668 30.8736 87.853C30.6383 87.9392 30.4493 88.0634 30.3068 88.2259C30.1676 88.3849 30.098 88.5971 30.098 88.8622C30.098 89.2301 30.2339 89.5085 30.5057 89.6974C30.7775 89.883 31.1238 89.9759 31.5447 89.9759ZM36.55 93.8636V83.3636H38.0017V84.6016H38.126C38.2122 84.4425 38.3365 84.2585 38.4989 84.0497C38.6613 83.8409 38.8866 83.6586 39.175 83.5028C39.4633 83.3438 39.8445 83.2642 40.3185 83.2642C40.9349 83.2642 41.4851 83.42 41.969 83.7315C42.4529 84.0431 42.8324 84.4922 43.1075 85.0788C43.3859 85.6655 43.5251 86.3714 43.5251 87.1967C43.5251 88.022 43.3876 88.7296 43.1125 89.3196C42.8374 89.9062 42.4596 90.3587 41.979 90.6768C41.4984 90.9917 40.9499 91.1491 40.3334 91.1491C39.8694 91.1491 39.4899 91.0713 39.1949 90.9155C38.9032 90.7597 38.6745 90.5774 38.5088 90.3686C38.3431 90.1598 38.2155 89.9742 38.126 89.8118H38.0365V93.8636H36.55ZM38.0067 87.1818C38.0067 87.7187 38.0846 88.1894 38.2403 88.5938C38.3961 88.9981 38.6215 89.3146 38.9165 89.5433C39.2115 89.7687 39.5727 89.8814 40.0003 89.8814C40.4444 89.8814 40.8156 89.7637 41.1139 89.5284C41.4122 89.2898 41.6376 88.9666 41.79 88.5589C41.9458 88.1513 42.0237 87.6922 42.0237 87.1818C42.0237 86.678 41.9475 86.2256 41.795 85.8246C41.6459 85.4235 41.4205 85.107 41.1189 84.875C40.8206 84.643 40.4477 84.527 40.0003 84.527C39.5694 84.527 39.2048 84.638 38.9065 84.8601C38.6115 85.0821 38.3878 85.392 38.2354 85.7898C38.0829 86.1875 38.0067 86.6515 38.0067 87.1818ZM46.9929 91.169C46.509 91.169 46.0715 91.0795 45.6804 90.9006C45.2893 90.7183 44.9794 90.4548 44.7507 90.1101C44.5254 89.7654 44.4127 89.3428 44.4127 88.8423C44.4127 88.4115 44.4955 88.0568 44.6612 87.7784C44.827 87.5 45.0507 87.2796 45.3324 87.1172C45.6141 86.9548 45.929 86.8321 46.277 86.7493C46.625 86.6664 46.9797 86.6035 47.3409 86.5604C47.7983 86.5073 48.1695 86.4643 48.4546 86.4311C48.7396 86.3946 48.9468 86.3366 49.076 86.2571C49.2053 86.1776 49.2699 86.0483 49.2699 85.8693V85.8345C49.2699 85.4003 49.1473 85.0639 48.902 84.8253C48.6601 84.5866 48.2988 84.4673 47.8182 84.4673C47.3177 84.4673 46.9233 84.5784 46.635 84.8004C46.3499 85.0192 46.1527 85.2628 46.0433 85.5312L44.6463 85.2131C44.812 84.7491 45.054 84.3745 45.3722 84.0895C45.6937 83.8011 46.0632 83.5923 46.4808 83.4631C46.8985 83.3305 47.3376 83.2642 47.7983 83.2642C48.1032 83.2642 48.4264 83.3007 48.7678 83.3736C49.1125 83.4432 49.434 83.5724 49.7323 83.7614C50.0339 83.9503 50.2808 84.2204 50.473 84.5717C50.6653 84.9197 50.7614 85.3722 50.7614 85.929V91H49.3097V89.956H49.25C49.1539 90.1482 49.0097 90.3371 48.8175 90.5227C48.6253 90.7083 48.3783 90.8625 48.0767 90.9851C47.7751 91.1077 47.4138 91.169 46.9929 91.169ZM47.3161 89.9759C47.7271 89.9759 48.0784 89.8946 48.37 89.7322C48.665 89.5698 48.8888 89.3577 49.0412 89.0959C49.197 88.8307 49.2749 88.5473 49.2749 88.2457V87.2614C49.2218 87.3144 49.1191 87.3641 48.9666 87.4105C48.8175 87.4536 48.6468 87.4917 48.4546 87.5249C48.2623 87.5547 48.0751 87.5829 47.8928 87.6094C47.7105 87.6326 47.558 87.6525 47.4354 87.669C47.147 87.7055 46.8835 87.7668 46.6449 87.853C46.4096 87.9392 46.2207 88.0634 46.0781 88.2259C45.9389 88.3849 45.8693 88.5971 45.8693 88.8622C45.8693 89.2301 46.0052 89.5085 46.277 89.6974C46.5488 89.883 46.8951 89.9759 47.3161 89.9759ZM52.3213 91V83.3636H53.7581V84.5767H53.8377C53.9769 84.1657 54.2221 83.8426 54.5735 83.6072C54.9281 83.3686 55.3291 83.2493 55.7766 83.2493C55.8694 83.2493 55.9788 83.2526 56.1047 83.2592C56.234 83.2659 56.3351 83.2741 56.408 83.2841V84.706C56.3483 84.6894 56.2422 84.6712 56.0898 84.6513C55.9373 84.6281 55.7849 84.6165 55.6324 84.6165C55.2811 84.6165 54.9679 84.6911 54.6928 84.8402C54.421 84.986 54.2056 85.1899 54.0465 85.4517C53.8874 85.7102 53.8078 86.0052 53.8078 86.3366V91H52.3213ZM61.2902 83.3636V84.5568H57.119V83.3636H61.2902ZM58.2376 81.5341H59.7241V88.7578C59.7241 89.0462 59.7672 89.2633 59.8534 89.4091C59.9396 89.5516 60.0506 89.6494 60.1865 89.7024C60.3257 89.7521 60.4765 89.777 60.6389 89.777C60.7582 89.777 60.8626 89.7687 60.9521 89.7521C61.0416 89.7356 61.1112 89.7223 61.1609 89.7124L61.4294 90.9403C61.3432 90.9735 61.2206 91.0066 61.0615 91.0398C60.9024 91.0762 60.7035 91.0961 60.4649 91.0994C60.0738 91.1061 59.7092 91.0365 59.3711 90.8906C59.0331 90.7448 58.7596 90.5194 58.5508 90.2145C58.342 89.9096 58.2376 89.5268 58.2376 89.0661V81.5341ZM62.5145 91V83.3636H63.9414V84.6065H64.0358C64.1949 84.1856 64.4551 83.8575 64.8164 83.6222C65.1776 83.3835 65.6102 83.2642 66.114 83.2642C66.6244 83.2642 67.0519 83.3835 67.3966 83.6222C67.7446 83.8608 68.0015 84.1889 68.1672 84.6065H68.2468C68.4291 84.1989 68.7191 83.8741 69.1168 83.6321C69.5145 83.3868 69.9885 83.2642 70.5387 83.2642C71.2314 83.2642 71.7965 83.4813 72.234 83.9155C72.6748 84.3497 72.8952 85.0043 72.8952 85.8793V91H71.4087V86.0185C71.4087 85.5014 71.2678 85.1269 70.9861 84.8949C70.7044 84.6629 70.368 84.5469 69.9769 84.5469C69.493 84.5469 69.1168 84.696 68.8483 84.9943C68.5799 85.2893 68.4456 85.6688 68.4456 86.1328V91H66.9641V85.924C66.9641 85.5097 66.8348 85.1766 66.5763 84.9247C66.3178 84.6728 65.9814 84.5469 65.5671 84.5469C65.2854 84.5469 65.0252 84.6214 64.7865 84.7706C64.5512 84.9164 64.3606 85.1203 64.2148 85.3821C64.0723 85.6439 64.001 85.9472 64.001 86.2919V91H62.5145ZM77.7588 91.1541C77.0064 91.1541 76.3584 90.9934 75.8149 90.6719C75.2746 90.3471 74.857 89.8913 74.562 89.3047C74.2704 88.7147 74.1245 88.0237 74.1245 87.2315C74.1245 86.4493 74.2704 85.7599 74.562 85.1634C74.857 84.5668 75.268 84.1011 75.795 83.7663C76.3253 83.4316 76.9451 83.2642 77.6544 83.2642C78.0852 83.2642 78.5028 83.3355 78.9072 83.478C79.3116 83.6205 79.6745 83.8442 79.996 84.1491C80.3175 84.4541 80.571 84.8501 80.7566 85.3374C80.9422 85.8213 81.035 86.4096 81.035 87.1023V87.6293H74.9647V86.5156H79.5784C79.5784 86.1245 79.4988 85.7782 79.3397 85.4766C79.1806 85.1716 78.9569 84.9313 78.6686 84.7557C78.3835 84.58 78.0488 84.4922 77.6643 84.4922C77.2467 84.4922 76.8821 84.5949 76.5706 84.8004C76.2623 85.0026 76.0237 85.2678 75.8546 85.5959C75.6889 85.9207 75.6061 86.2737 75.6061 86.6548V87.5249C75.6061 88.0353 75.6956 88.4695 75.8745 88.8274C76.0568 89.1854 76.3104 89.4588 76.6352 89.6477C76.96 89.8333 77.3395 89.9261 77.7737 89.9261C78.0554 89.9261 78.3123 89.8864 78.5443 89.8068C78.7763 89.724 78.9768 89.6013 79.1458 89.4389C79.3149 89.2765 79.4441 89.076 79.5336 88.8374L80.9406 89.0909C80.8279 89.5052 80.6257 89.8681 80.334 90.1797C80.0457 90.4879 79.6828 90.7282 79.2453 90.9006C78.8111 91.0696 78.3156 91.1541 77.7588 91.1541ZM83.7509 86.4659V91H82.2644V83.3636H83.6912V84.6065H83.7857C83.9613 84.2022 84.2364 83.8774 84.611 83.6321C84.9888 83.3868 85.4644 83.2642 86.0378 83.2642C86.5582 83.2642 87.0139 83.3736 87.405 83.5923C87.7961 83.8078 88.0994 84.1293 88.3148 84.5568C88.5302 84.9844 88.6379 85.513 88.6379 86.1428V91H87.1514V86.3217C87.1514 85.7682 87.0073 85.3357 86.7189 85.0241C86.4306 84.7093 86.0345 84.5518 85.5307 84.5518C85.186 84.5518 84.8794 84.6264 84.611 84.7756C84.3458 84.9247 84.1353 85.1435 83.9796 85.4318C83.8271 85.7169 83.7509 86.0616 83.7509 86.4659ZM93.7762 83.3636V84.5568H89.605V83.3636H93.7762ZM90.7236 81.5341H92.2101V88.7578C92.2101 89.0462 92.2532 89.2633 92.3394 89.4091C92.4256 89.5516 92.5366 89.6494 92.6725 89.7024C92.8117 89.7521 92.9625 89.777 93.1249 89.777C93.2442 89.777 93.3486 89.7687 93.4381 89.7521C93.5276 89.7356 93.5972 89.7223 93.6469 89.7124L93.9154 90.9403C93.8292 90.9735 93.7066 91.0066 93.5475 91.0398C93.3884 91.0762 93.1895 91.0961 92.9509 91.0994C92.5598 91.1061 92.1952 91.0365 91.8572 90.8906C91.5191 90.7448 91.2456 90.5194 91.0368 90.2145C90.828 89.9096 90.7236 89.5268 90.7236 89.0661V81.5341ZM104.008 85.228L102.661 85.4666C102.604 85.2943 102.515 85.1302 102.392 84.9744C102.273 84.8187 102.11 84.6911 101.905 84.5916C101.699 84.4922 101.443 84.4425 101.134 84.4425C100.713 84.4425 100.362 84.5369 100.08 84.7259C99.7986 84.9115 99.6578 85.1518 99.6578 85.4467C99.6578 85.7019 99.7522 85.9074 99.9412 86.0632C100.13 86.219 100.435 86.3466 100.856 86.446L102.069 86.7244C102.772 86.8868 103.295 87.1371 103.64 87.4751C103.985 87.8132 104.157 88.2524 104.157 88.7926C104.157 89.25 104.024 89.6577 103.759 90.0156C103.498 90.3703 103.131 90.6487 102.661 90.8509C102.193 91.053 101.651 91.1541 101.035 91.1541C100.18 91.1541 99.4821 90.9718 98.9419 90.6072C98.4016 90.2393 98.0702 89.7173 97.9476 89.0412L99.3843 88.8224C99.4738 89.197 99.6578 89.4804 99.9362 89.6726C100.215 89.8615 100.578 89.956 101.025 89.956C101.512 89.956 101.902 89.8549 102.193 89.6527C102.485 89.4472 102.631 89.197 102.631 88.902C102.631 88.6634 102.541 88.4628 102.362 88.3004C102.187 88.138 101.917 88.0154 101.552 87.9325L100.259 87.6491C99.5467 87.4867 99.0198 87.2282 98.6784 86.8736C98.3403 86.5189 98.1713 86.0698 98.1713 85.5263C98.1713 85.0755 98.2972 84.6811 98.5491 84.343C98.801 84.005 99.149 83.7415 99.5931 83.5526C100.037 83.3603 100.546 83.2642 101.119 83.2642C101.945 83.2642 102.594 83.4432 103.068 83.8011C103.542 84.1558 103.855 84.6314 104.008 85.228ZM105.371 91V83.3636H106.858V91H105.371ZM106.122 82.1854C105.864 82.1854 105.642 82.0992 105.456 81.9268C105.274 81.7512 105.183 81.5424 105.183 81.3004C105.183 81.0552 105.274 80.8464 105.456 80.674C105.642 80.4983 105.864 80.4105 106.122 80.4105C106.381 80.4105 106.601 80.4983 106.783 80.674C106.969 80.8464 107.062 81.0552 107.062 81.3004C107.062 81.5424 106.969 81.7512 106.783 81.9268C106.601 82.0992 106.381 82.1854 106.122 82.1854ZM109.924 86.4659V91H108.438V83.3636H109.865V84.6065H109.959C110.135 84.2022 110.41 83.8774 110.784 83.6321C111.162 83.3868 111.638 83.2642 112.211 83.2642C112.732 83.2642 113.187 83.3736 113.578 83.5923C113.97 83.8078 114.273 84.1293 114.488 84.5568C114.704 84.9844 114.811 85.513 114.811 86.1428V91H113.325V86.3217C113.325 85.7682 113.181 85.3357 112.892 85.0241C112.604 84.7093 112.208 84.5518 111.704 84.5518C111.359 84.5518 111.053 84.6264 110.784 84.7756C110.519 84.9247 110.309 85.1435 110.153 85.4318C110.001 85.7169 109.924 86.0616 109.924 86.4659ZM119.602 91.1541C118.863 91.1541 118.226 90.9867 117.693 90.652C117.162 90.3139 116.755 89.8482 116.47 89.255C116.184 88.6617 116.042 87.9822 116.042 87.2166C116.042 86.4411 116.188 85.7566 116.479 85.1634C116.771 84.5668 117.182 84.1011 117.712 83.7663C118.243 83.4316 118.867 83.2642 119.587 83.2642C120.167 83.2642 120.684 83.3719 121.138 83.5874C121.592 83.7995 121.958 84.0978 122.237 84.4822C122.518 84.8667 122.686 85.3158 122.739 85.8295H121.292C121.212 85.4716 121.03 85.1634 120.745 84.9048C120.463 84.6463 120.086 84.517 119.612 84.517C119.197 84.517 118.834 84.6264 118.523 84.8452C118.215 85.0606 117.974 85.3688 117.802 85.7699C117.63 86.1676 117.543 86.6383 117.543 87.1818C117.543 87.7386 117.628 88.2192 117.797 88.6236C117.966 89.0279 118.205 89.3411 118.513 89.5632C118.824 89.7853 119.191 89.8963 119.612 89.8963C119.893 89.8963 120.148 89.8449 120.377 89.7422C120.609 89.6361 120.803 89.4853 120.959 89.2898C121.118 89.0942 121.229 88.8589 121.292 88.5838H122.739C122.686 89.0777 122.525 89.5185 122.256 89.9062C121.988 90.294 121.628 90.599 121.178 90.821C120.73 91.0431 120.205 91.1541 119.602 91.1541ZM127.2 91.1541C126.447 91.1541 125.799 90.9934 125.256 90.6719C124.715 90.3471 124.298 89.8913 124.003 89.3047C123.711 88.7147 123.565 88.0237 123.565 87.2315C123.565 86.4493 123.711 85.7599 124.003 85.1634C124.298 84.5668 124.709 84.1011 125.236 83.7663C125.766 83.4316 126.386 83.2642 127.095 83.2642C127.526 83.2642 127.944 83.3355 128.348 83.478C128.752 83.6205 129.115 83.8442 129.437 84.1491C129.758 84.4541 130.012 84.8501 130.197 85.3374C130.383 85.8213 130.476 86.4096 130.476 87.1023V87.6293H124.406V86.5156H129.019C129.019 86.1245 128.94 85.7782 128.781 85.4766C128.621 85.1716 128.398 84.9313 128.109 84.7557C127.824 84.58 127.49 84.4922 127.105 84.4922C126.687 84.4922 126.323 84.5949 126.011 84.8004C125.703 85.0026 125.464 85.2678 125.295 85.5959C125.13 85.9207 125.047 86.2737 125.047 86.6548V87.5249C125.047 88.0353 125.136 88.4695 125.315 88.8274C125.498 89.1854 125.751 89.4588 126.076 89.6477C126.401 89.8333 126.78 89.9261 127.214 89.9261C127.496 89.9261 127.753 89.8864 127.985 89.8068C128.217 89.724 128.418 89.6013 128.587 89.4389C128.756 89.2765 128.885 89.076 128.974 88.8374L130.381 89.0909C130.269 89.5052 130.066 89.8681 129.775 90.1797C129.486 90.4879 129.124 90.7282 128.686 90.9006C128.252 91.0696 127.756 91.1541 127.2 91.1541ZM138.356 80.679C138.81 80.6823 139.258 80.7652 139.698 80.9276C140.139 81.09 140.537 81.3551 140.892 81.723C141.249 82.0909 141.534 82.5881 141.747 83.2145C141.962 83.8376 142.071 84.6132 142.075 85.5412C142.075 86.4328 141.985 87.2266 141.806 87.9226C141.627 88.6153 141.37 89.2003 141.036 89.6776C140.704 90.1548 140.302 90.5178 139.828 90.7663C139.354 91.0149 138.82 91.1392 138.227 91.1392C137.62 91.1392 137.082 91.0199 136.611 90.7812C136.14 90.5426 135.758 90.2128 135.463 89.7919C135.168 89.3677 134.984 88.8804 134.911 88.3303H136.427C136.526 88.7678 136.729 89.1224 137.034 89.3942C137.342 89.6626 137.74 89.7969 138.227 89.7969C138.972 89.7969 139.554 89.4721 139.972 88.8224C140.389 88.1695 140.6 87.258 140.603 86.0881H140.524C140.351 86.3731 140.136 86.6184 139.877 86.8239C139.622 87.0294 139.335 87.1884 139.017 87.3011C138.699 87.4138 138.359 87.4702 137.998 87.4702C137.411 87.4702 136.878 87.326 136.397 87.0376C135.917 86.7493 135.534 86.3532 135.249 85.8494C134.964 85.3456 134.821 84.7706 134.821 84.1243C134.821 83.4813 134.967 82.898 135.259 82.3743C135.554 81.8506 135.965 81.4363 136.492 81.1314C137.022 80.8232 137.643 80.6723 138.356 80.679ZM138.361 81.9716C137.973 81.9716 137.624 82.0677 137.312 82.2599C137.004 82.4489 136.76 82.7057 136.581 83.0305C136.402 83.352 136.313 83.71 136.313 84.1044C136.313 84.4988 136.399 84.8568 136.571 85.1783C136.747 85.4964 136.985 85.75 137.287 85.9389C137.592 86.1245 137.94 86.2173 138.331 86.2173C138.623 86.2173 138.895 86.161 139.146 86.0483C139.398 85.9356 139.619 85.7798 139.808 85.581C139.997 85.3788 140.144 85.1501 140.25 84.8949C140.356 84.6397 140.409 84.3712 140.409 84.0895C140.409 83.715 140.32 83.367 140.141 83.0455C139.965 82.724 139.723 82.4654 139.415 82.2699C139.107 82.071 138.755 81.9716 138.361 81.9716ZM145.693 91.169C145.209 91.169 144.772 91.0795 144.38 90.9006C143.989 90.7183 143.679 90.4548 143.451 90.1101C143.225 89.7654 143.113 89.3428 143.113 88.8423C143.113 88.4115 143.196 88.0568 143.361 87.7784C143.527 87.5 143.751 87.2796 144.032 87.1172C144.314 86.9548 144.629 86.8321 144.977 86.7493C145.325 86.6664 145.68 86.6035 146.041 86.5604C146.498 86.5073 146.87 86.4643 147.155 86.4311C147.44 86.3946 147.647 86.3366 147.776 86.2571C147.905 86.1776 147.97 86.0483 147.97 85.8693V85.8345C147.97 85.4003 147.847 85.0639 147.602 84.8253C147.36 84.5866 146.999 84.4673 146.518 84.4673C146.018 84.4673 145.623 84.5784 145.335 84.8004C145.05 85.0192 144.853 85.2628 144.743 85.5312L143.346 85.2131C143.512 84.7491 143.754 84.3745 144.072 84.0895C144.394 83.8011 144.763 83.5923 145.181 83.4631C145.598 83.3305 146.038 83.2642 146.498 83.2642C146.803 83.2642 147.126 83.3007 147.468 83.3736C147.812 83.4432 148.134 83.5724 148.432 83.7614C148.734 83.9503 148.981 84.2204 149.173 84.5717C149.365 84.9197 149.461 85.3722 149.461 85.929V91H148.01V89.956H147.95C147.854 90.1482 147.71 90.3371 147.517 90.5227C147.325 90.7083 147.078 90.8625 146.777 90.9851C146.475 91.1077 146.114 91.169 145.693 91.169ZM146.016 89.9759C146.427 89.9759 146.778 89.8946 147.07 89.7322C147.365 89.5698 147.589 89.3577 147.741 89.0959C147.897 88.8307 147.975 88.5473 147.975 88.2457V87.2614C147.922 87.3144 147.819 87.3641 147.667 87.4105C147.517 87.4536 147.347 87.4917 147.155 87.5249C146.962 87.5547 146.775 87.5829 146.593 87.6094C146.41 87.6326 146.258 87.6525 146.135 87.669C145.847 87.7055 145.584 87.7668 145.345 87.853C145.11 87.9392 144.921 88.0634 144.778 88.2259C144.639 88.3849 144.569 88.5971 144.569 88.8622C144.569 89.2301 144.705 89.5085 144.977 89.6974C145.249 89.883 145.595 89.9759 146.016 89.9759ZM151.021 91V83.3636H152.448V84.6065H152.543C152.702 84.1856 152.962 83.8575 153.323 83.6222C153.684 83.3835 154.117 83.2642 154.621 83.2642C155.131 83.2642 155.559 83.3835 155.903 83.6222C156.251 83.8608 156.508 84.1889 156.674 84.6065H156.754C156.936 84.1989 157.226 83.8741 157.624 83.6321C158.021 83.3868 158.495 83.2642 159.045 83.2642C159.738 83.2642 160.303 83.4813 160.741 83.9155C161.182 84.3497 161.402 85.0043 161.402 85.8793V91H159.916V86.0185C159.916 85.5014 159.775 85.1269 159.493 84.8949C159.211 84.6629 158.875 84.5469 158.484 84.5469C158 84.5469 157.624 84.696 157.355 84.9943C157.087 85.2893 156.952 85.6688 156.952 86.1328V91H155.471V85.924C155.471 85.5097 155.342 85.1766 155.083 84.9247C154.825 84.6728 154.488 84.5469 154.074 84.5469C153.792 84.5469 153.532 84.6214 153.293 84.7706C153.058 84.9164 152.867 85.1203 152.722 85.3821C152.579 85.6439 152.508 85.9472 152.508 86.2919V91H151.021ZM169.824 83.3636V84.5568H165.653V83.3636H169.824ZM166.772 81.5341H168.258V88.7578C168.258 89.0462 168.301 89.2633 168.387 89.4091C168.473 89.5516 168.584 89.6494 168.72 89.7024C168.86 89.7521 169.01 89.777 169.173 89.777C169.292 89.777 169.397 89.7687 169.486 89.7521C169.576 89.7356 169.645 89.7223 169.695 89.7124L169.963 90.9403C169.877 90.9735 169.754 91.0066 169.595 91.0398C169.436 91.0762 169.237 91.0961 168.999 91.0994C168.608 91.1061 168.243 91.0365 167.905 90.8906C167.567 90.7448 167.294 90.5194 167.085 90.2145C166.876 89.9096 166.772 89.5268 166.772 89.0661V81.5341ZM174.183 91.1541C173.467 91.1541 172.842 90.9901 172.309 90.6619C171.775 90.3338 171.361 89.8748 171.066 89.2848C170.771 88.6948 170.623 88.0054 170.623 87.2166C170.623 86.4245 170.771 85.7318 171.066 85.1385C171.361 84.5452 171.775 84.0845 172.309 83.7564C172.842 83.4283 173.467 83.2642 174.183 83.2642C174.899 83.2642 175.524 83.4283 176.057 83.7564C176.591 84.0845 177.005 84.5452 177.3 85.1385C177.595 85.7318 177.743 86.4245 177.743 87.2166C177.743 88.0054 177.595 88.6948 177.3 89.2848C177.005 89.8748 176.591 90.3338 176.057 90.6619C175.524 90.9901 174.899 91.1541 174.183 91.1541ZM174.188 89.9062C174.652 89.9062 175.036 89.7836 175.341 89.5384C175.646 89.2931 175.872 88.9666 176.018 88.5589C176.167 88.1513 176.241 87.7022 176.241 87.2116C176.241 86.7244 176.167 86.277 176.018 85.8693C175.872 85.4583 175.646 85.1286 175.341 84.88C175.036 84.6314 174.652 84.5071 174.188 84.5071C173.721 84.5071 173.333 84.6314 173.025 84.88C172.72 85.1286 172.493 85.4583 172.344 85.8693C172.198 86.277 172.125 86.7244 172.125 87.2116C172.125 87.7022 172.198 88.1513 172.344 88.5589C172.493 88.9666 172.72 89.2931 173.025 89.5384C173.333 89.7836 173.721 89.9062 174.188 89.9062ZM181.841 91.1491C181.224 91.1491 180.674 90.9917 180.19 90.6768C179.709 90.3587 179.332 89.9062 179.057 89.3196C178.785 88.7296 178.649 88.022 178.649 87.1967C178.649 86.3714 178.786 85.6655 179.061 85.0788C179.34 84.4922 179.721 84.0431 180.205 83.7315C180.689 83.42 181.237 83.2642 181.851 83.2642C182.325 83.2642 182.706 83.3438 182.994 83.5028C183.286 83.6586 183.511 83.8409 183.67 84.0497C183.833 84.2585 183.959 84.4425 184.048 84.6016H184.137V80.8182H185.624V91H184.172V89.8118H184.048C183.959 89.9742 183.829 90.1598 183.66 90.3686C183.494 90.5774 183.266 90.7597 182.974 90.9155C182.682 91.0713 182.305 91.1491 181.841 91.1491ZM182.169 89.8814C182.596 89.8814 182.958 89.7687 183.253 89.5433C183.551 89.3146 183.776 88.9981 183.929 88.5938C184.084 88.1894 184.162 87.7187 184.162 87.1818C184.162 86.6515 184.086 86.1875 183.934 85.7898C183.781 85.392 183.557 85.0821 183.262 84.8601C182.967 84.638 182.603 84.527 182.169 84.527C181.721 84.527 181.348 84.643 181.05 84.875C180.752 85.107 180.526 85.4235 180.374 85.8246C180.225 86.2256 180.15 86.678 180.15 87.1818C180.15 87.6922 180.226 88.1513 180.379 88.5589C180.531 88.9666 180.757 89.2898 181.055 89.5284C181.357 89.7637 181.728 89.8814 182.169 89.8814ZM189.548 91.169C189.064 91.169 188.627 91.0795 188.235 90.9006C187.844 90.7183 187.534 90.4548 187.306 90.1101C187.08 89.7654 186.968 89.3428 186.968 88.8423C186.968 88.4115 187.051 88.0568 187.216 87.7784C187.382 87.5 187.606 87.2796 187.887 87.1172C188.169 86.9548 188.484 86.8321 188.832 86.7493C189.18 86.6664 189.535 86.6035 189.896 86.5604C190.353 86.5073 190.725 86.4643 191.01 86.4311C191.295 86.3946 191.502 86.3366 191.631 86.2571C191.76 86.1776 191.825 86.0483 191.825 85.8693V85.8345C191.825 85.4003 191.702 85.0639 191.457 84.8253C191.215 84.5866 190.854 84.4673 190.373 84.4673C189.873 84.4673 189.478 84.5784 189.19 84.8004C188.905 85.0192 188.708 85.2628 188.598 85.5312L187.201 85.2131C187.367 84.7491 187.609 84.3745 187.927 84.0895C188.249 83.8011 188.618 83.5923 189.036 83.4631C189.453 83.3305 189.893 83.2642 190.353 83.2642C190.658 83.2642 190.981 83.3007 191.323 83.3736C191.667 83.4432 191.989 83.5724 192.287 83.7614C192.589 83.9503 192.836 84.2204 193.028 84.5717C193.22 84.9197 193.316 85.3722 193.316 85.929V91H191.865V89.956H191.805C191.709 90.1482 191.565 90.3371 191.372 90.5227C191.18 90.7083 190.933 90.8625 190.632 90.9851C190.33 91.1077 189.969 91.169 189.548 91.169ZM189.871 89.9759C190.282 89.9759 190.633 89.8946 190.925 89.7322C191.22 89.5698 191.444 89.3577 191.596 89.0959C191.752 88.8307 191.83 88.5473 191.83 88.2457V87.2614C191.777 87.3144 191.674 87.3641 191.522 87.4105C191.372 87.4536 191.202 87.4917 191.01 87.5249C190.817 87.5547 190.63 87.5829 190.448 87.6094C190.265 87.6326 190.113 87.6525 189.99 87.669C189.702 87.7055 189.439 87.7668 189.2 87.853C188.965 87.9392 188.776 88.0634 188.633 88.2259C188.494 88.3849 188.424 88.5971 188.424 88.8622C188.424 89.2301 188.56 89.5085 188.832 89.6974C189.104 89.883 189.45 89.9759 189.871 89.9759ZM195.543 93.8636C195.32 93.8636 195.118 93.8454 194.936 93.8089C194.754 93.7758 194.618 93.7393 194.528 93.6996L194.886 92.4815C195.158 92.5545 195.4 92.5859 195.612 92.576C195.824 92.5661 196.011 92.4865 196.174 92.3374C196.34 92.1882 196.485 91.9446 196.611 91.6065L196.795 91.0994L194.001 83.3636H195.592L197.526 89.2898H197.606L199.54 83.3636H201.136L197.989 92.0192C197.843 92.4169 197.657 92.7533 197.432 93.0284C197.206 93.3068 196.938 93.5156 196.626 93.6548C196.315 93.794 195.953 93.8636 195.543 93.8636Z" fill="#343433"/>
<path d="M28 148L22.1213 142.121C20.9497 140.95 19.0503 140.95 17.8787 142.121L16 144M19 148H29C30.6569 148 32 146.657 32 145V135C32 133.343 30.6569 132 29 132H19C17.3431 132 16 133.343 16 135V145C16 146.657 17.3431 148 19 148ZM28.5 137.5C28.5 138.605 27.6046 139.5 26.5 139.5C25.3954 139.5 24.5 138.605 24.5 137.5C24.5 136.395 25.3954 135.5 26.5 135.5C27.6046 135.5 28.5 136.395 28.5 137.5Z" stroke="#D9D6D4" stroke-width="2"/>
<path d="M47 136C47 134.343 48.3431 133 50 133H56C57.6569 133 59 134.343 59 136V144C59 145.657 57.6569 147 56 147H50C48.3431 147 47 145.657 47 144V136Z" stroke="#D9D6D4" stroke-width="2" stroke-linejoin="round"/>
<path d="M59.5528 137.724L63.5528 135.724C64.2177 135.391 65 135.875 65 136.618V143.382C65 144.125 64.2177 144.609 63.5528 144.276L59.5528 142.276C59.214 142.107 59 141.761 59 141.382V138.618C59 138.239 59.214 137.893 59.5528 137.724Z" stroke="#D9D6D4" stroke-width="2" stroke-linejoin="round"/>
<rect x="208" y="123" width="82" height="34" rx="12" fill="#3784F4"/>
<path d="M238.798 137.617C238.751 137.183 238.556 136.845 238.211 136.603C237.869 136.361 237.425 136.24 236.878 136.24C236.494 136.24 236.164 136.298 235.889 136.414C235.614 136.53 235.404 136.687 235.258 136.886C235.112 137.085 235.037 137.312 235.034 137.567C235.034 137.78 235.082 137.964 235.178 138.119C235.278 138.275 235.412 138.408 235.581 138.517C235.75 138.623 235.937 138.713 236.143 138.786C236.348 138.858 236.555 138.92 236.764 138.969L237.719 139.208C238.103 139.298 238.473 139.419 238.827 139.571C239.185 139.723 239.505 139.916 239.787 140.148C240.072 140.38 240.297 140.66 240.463 140.988C240.629 141.316 240.712 141.701 240.712 142.141C240.712 142.738 240.559 143.263 240.254 143.717C239.949 144.168 239.508 144.521 238.932 144.776C238.358 145.028 237.664 145.154 236.849 145.154C236.057 145.154 235.369 145.031 234.785 144.786C234.205 144.541 233.751 144.183 233.423 143.712C233.098 143.242 232.923 142.668 232.896 141.992H234.711C234.737 142.347 234.847 142.642 235.039 142.877C235.231 143.112 235.481 143.288 235.79 143.404C236.101 143.52 236.449 143.578 236.834 143.578C237.235 143.578 237.586 143.518 237.888 143.399C238.193 143.277 238.431 143.107 238.604 142.892C238.776 142.673 238.864 142.418 238.867 142.126C238.864 141.861 238.786 141.643 238.633 141.47C238.481 141.295 238.267 141.149 237.992 141.033C237.72 140.913 237.402 140.807 237.038 140.714L235.879 140.416C235.041 140.201 234.378 139.874 233.891 139.437C233.407 138.996 233.165 138.411 233.165 137.682C233.165 137.082 233.327 136.557 233.652 136.106C233.98 135.655 234.426 135.305 234.989 135.057C235.553 134.805 236.191 134.679 236.903 134.679C237.626 134.679 238.259 134.805 238.802 135.057C239.349 135.305 239.779 135.652 240.09 136.096C240.402 136.537 240.562 137.044 240.572 137.617H238.798ZM245.237 145.149C244.471 145.149 243.81 144.99 243.253 144.672C242.7 144.35 242.274 143.896 241.976 143.31C241.677 142.72 241.528 142.025 241.528 141.227C241.528 140.441 241.677 139.752 241.976 139.158C242.277 138.562 242.698 138.098 243.238 137.766C243.779 137.432 244.413 137.264 245.143 137.264C245.613 137.264 246.057 137.34 246.475 137.493C246.896 137.642 247.267 137.874 247.589 138.189C247.913 138.504 248.169 138.905 248.354 139.392C248.54 139.876 248.633 140.453 248.633 141.122V141.674H242.373V140.461H246.908C246.904 140.116 246.83 139.81 246.684 139.541C246.538 139.269 246.334 139.056 246.072 138.9C245.814 138.744 245.512 138.666 245.167 138.666C244.8 138.666 244.476 138.756 244.198 138.935C243.92 139.11 243.703 139.342 243.547 139.631C243.394 139.916 243.316 140.229 243.313 140.57V141.629C243.313 142.073 243.394 142.455 243.557 142.773C243.719 143.088 243.946 143.33 244.238 143.499C244.529 143.664 244.871 143.747 245.262 143.747C245.524 143.747 245.761 143.711 245.973 143.638C246.185 143.562 246.369 143.451 246.525 143.305C246.68 143.159 246.798 142.978 246.878 142.763L248.558 142.952C248.452 143.396 248.25 143.784 247.952 144.115C247.657 144.443 247.279 144.698 246.818 144.881C246.357 145.06 245.83 145.149 245.237 145.149ZM251.535 140.526V145H249.735V137.364H251.455V138.661H251.545C251.721 138.234 252.001 137.894 252.385 137.642C252.773 137.39 253.252 137.264 253.822 137.264C254.349 137.264 254.808 137.377 255.199 137.602C255.593 137.828 255.898 138.154 256.114 138.582C256.333 139.009 256.44 139.528 256.437 140.138V145H254.637V140.416C254.637 139.906 254.505 139.506 254.239 139.218C253.978 138.93 253.615 138.786 253.151 138.786C252.836 138.786 252.556 138.855 252.311 138.994C252.069 139.13 251.878 139.327 251.739 139.586C251.603 139.844 251.535 140.158 251.535 140.526ZM260.68 145.134C260.08 145.134 259.543 144.98 259.069 144.672C258.596 144.364 258.221 143.916 257.946 143.33C257.671 142.743 257.533 142.03 257.533 141.192C257.533 140.343 257.672 139.627 257.951 139.044C258.233 138.457 258.612 138.015 259.089 137.717C259.567 137.415 260.099 137.264 260.685 137.264C261.133 137.264 261.501 137.34 261.789 137.493C262.077 137.642 262.306 137.823 262.475 138.035C262.644 138.244 262.775 138.441 262.868 138.626H262.942V134.818H264.747V145H262.977V143.797H262.868C262.775 143.982 262.641 144.18 262.465 144.388C262.289 144.594 262.057 144.77 261.769 144.915C261.481 145.061 261.118 145.134 260.68 145.134ZM261.182 143.658C261.564 143.658 261.888 143.555 262.157 143.349C262.425 143.141 262.629 142.851 262.768 142.479C262.908 142.108 262.977 141.676 262.977 141.182C262.977 140.688 262.908 140.259 262.768 139.894C262.632 139.53 262.43 139.246 262.162 139.044C261.897 138.842 261.57 138.741 261.182 138.741C260.781 138.741 260.447 138.845 260.178 139.054C259.91 139.263 259.708 139.551 259.572 139.919C259.436 140.287 259.368 140.708 259.368 141.182C259.368 141.659 259.436 142.085 259.572 142.46C259.711 142.831 259.915 143.124 260.183 143.339C260.455 143.552 260.788 143.658 261.182 143.658Z" fill="white"/>
</svg>
