<svg width="273" height="194" viewBox="0 0 273 194" fill="none" xmlns="http://www.w3.org/2000/svg">
<rect x="0.5" y="0.5" width="272" height="193" rx="15.5" fill="white"/>
<rect x="0.5" y="0.5" width="272" height="193" rx="15.5" stroke="#F0EFEE"/>
<rect x="12.5" y="12.5" width="248" height="55" rx="11.5" fill="white"/>
<rect x="12.5" y="12.5" width="248" height="55" rx="11.5" stroke="#F5F2F0"/>
<path d="M40.2489 38.6136V39.75H28.658V38.6136H40.2489ZM40.2489 41.0682V42.2045H28.658V41.0682H40.2489ZM39.1523 34.3636V46H37.533L31.6182 37.4659H31.5159V46H29.7546V34.3636H31.3853L37.3 42.9091H37.408V34.3636H39.1523ZM45.6325 34.3636V46H43.8712V36.125H43.803L41.0189 37.9432V36.2614L43.9223 34.3636H45.6325ZM48.3003 46V44.7273L52.2378 40.6477C52.6582 40.2045 53.0048 39.8163 53.2775 39.483C53.554 39.1458 53.7605 38.8258 53.8968 38.5227C54.0332 38.2197 54.1014 37.8977 54.1014 37.5568C54.1014 37.1705 54.0105 36.8371 53.8287 36.5568C53.6468 36.2727 53.3987 36.0549 53.0843 35.9034C52.77 35.7481 52.4158 35.6705 52.0218 35.6705C51.6052 35.6705 51.2415 35.7557 50.9309 35.9261C50.6203 36.0966 50.3817 36.3371 50.215 36.6477C50.0484 36.9583 49.965 37.322 49.965 37.7386H48.2889C48.2889 37.0303 48.4518 36.411 48.7775 35.8807C49.1033 35.3504 49.5503 34.9394 50.1184 34.6477C50.6866 34.3523 51.3325 34.2045 52.0559 34.2045C52.787 34.2045 53.4309 34.3504 53.9878 34.642C54.5484 34.9299 54.9859 35.3239 55.3003 35.8239C55.6147 36.3201 55.7718 36.8807 55.7718 37.5057C55.7718 37.9375 55.6904 38.3598 55.5275 38.7727C55.3684 39.1856 55.09 39.6458 54.6923 40.1534C54.2946 40.6572 53.7415 41.2689 53.0332 41.9886L50.7207 44.4091V44.4943H55.9593V46H48.3003ZM61.6839 46.1932C60.7862 46.1894 60.0191 45.9527 59.3828 45.483C58.7464 45.0133 58.2596 44.3295 57.9225 43.4318C57.5854 42.5341 57.4168 41.4527 57.4168 40.1875C57.4168 38.9261 57.5854 37.8485 57.9225 36.9545C58.2634 36.0606 58.7521 35.3788 59.3884 34.9091C60.0286 34.4394 60.7937 34.2045 61.6839 34.2045C62.574 34.2045 63.3373 34.4413 63.9737 34.9148C64.61 35.3845 65.0968 36.0663 65.4339 36.9602C65.7748 37.8504 65.9453 38.9261 65.9453 40.1875C65.9453 41.4564 65.7767 42.5398 65.4396 43.4375C65.1025 44.3314 64.6157 45.0152 63.9793 45.4886C63.343 45.9583 62.5778 46.1932 61.6839 46.1932ZM61.6839 44.6761C62.4718 44.6761 63.0873 44.2917 63.5305 43.5227C63.9775 42.7538 64.2009 41.642 64.2009 40.1875C64.2009 39.2216 64.0987 38.4053 63.8941 37.7386C63.6934 37.0682 63.4036 36.5606 63.0248 36.2159C62.6498 35.8674 62.2028 35.6932 61.6839 35.6932C60.8998 35.6932 60.2843 36.0795 59.8373 36.8523C59.3903 37.625 59.165 38.7367 59.1612 40.1875C59.1612 41.1572 59.2615 41.9773 59.4623 42.6477C59.6668 43.3144 59.9566 43.8201 60.3316 44.1648C60.7066 44.5057 61.1574 44.6761 61.6839 44.6761ZM69.292 44.4091L69.2067 45.0284C69.1499 45.483 69.0533 45.9564 68.917 46.4489C68.7844 46.9451 68.6461 47.4053 68.5022 47.8295C68.362 48.2538 68.2465 48.5909 68.1556 48.8409H66.9511C67.0003 48.6061 67.0685 48.2879 67.1556 47.8864C67.2427 47.4886 67.3279 47.0436 67.4113 46.5511C67.4946 46.0587 67.5571 45.5568 67.5988 45.0455L67.6556 44.4091H69.292ZM74.8176 46.1932C73.9199 46.1894 73.1529 45.9527 72.5165 45.483C71.8801 45.0133 71.3934 44.3295 71.0563 43.4318C70.7192 42.5341 70.5506 41.4527 70.5506 40.1875C70.5506 38.9261 70.7192 37.8485 71.0563 36.9545C71.3972 36.0606 71.8858 35.3788 72.5222 34.9091C73.1623 34.4394 73.9275 34.2045 74.8176 34.2045C75.7078 34.2045 76.4711 34.4413 77.1074 34.9148C77.7438 35.3845 78.2305 36.0663 78.5676 36.9602C78.9085 37.8504 79.079 38.9261 79.079 40.1875C79.079 41.4564 78.9104 42.5398 78.5733 43.4375C78.2362 44.3314 77.7495 45.0152 77.1131 45.4886C76.4767 45.9583 75.7116 46.1932 74.8176 46.1932ZM74.8176 44.6761C75.6055 44.6761 76.2211 44.2917 76.6642 43.5227C77.1112 42.7538 77.3347 41.642 77.3347 40.1875C77.3347 39.2216 77.2324 38.4053 77.0279 37.7386C76.8271 37.0682 76.5373 36.5606 76.1586 36.2159C75.7836 35.8674 75.3366 35.6932 74.8176 35.6932C74.0335 35.6932 73.418 36.0795 72.9711 36.8523C72.5241 37.625 72.2987 38.7367 72.2949 40.1875C72.2949 41.1572 72.3953 41.9773 72.5961 42.6477C72.8006 43.3144 73.0904 43.8201 73.4654 44.1648C73.8404 44.5057 74.2911 44.6761 74.8176 44.6761ZM84.6658 46.1932C83.768 46.1894 83.001 45.9527 82.3646 45.483C81.7283 45.0133 81.2415 44.3295 80.9044 43.4318C80.5673 42.5341 80.3987 41.4527 80.3987 40.1875C80.3987 38.9261 80.5673 37.8485 80.9044 36.9545C81.2453 36.0606 81.7339 35.3788 82.3703 34.9091C83.0105 34.4394 83.7756 34.2045 84.6658 34.2045C85.5559 34.2045 86.3192 34.4413 86.9555 34.9148C87.5919 35.3845 88.0786 36.0663 88.4158 36.9602C88.7567 37.8504 88.9271 38.9261 88.9271 40.1875C88.9271 41.4564 88.7586 42.5398 88.4214 43.4375C88.0843 44.3314 87.5976 45.0152 86.9612 45.4886C86.3249 45.9583 85.5597 46.1932 84.6658 46.1932ZM84.6658 44.6761C85.4536 44.6761 86.0692 44.2917 86.5124 43.5227C86.9593 42.7538 87.1828 41.642 87.1828 40.1875C87.1828 39.2216 87.0805 38.4053 86.876 37.7386C86.6752 37.0682 86.3855 36.5606 86.0067 36.2159C85.6317 35.8674 85.1847 35.6932 84.6658 35.6932C83.8817 35.6932 83.2661 36.0795 82.8192 36.8523C82.3722 37.625 82.1468 38.7367 82.143 40.1875C82.143 41.1572 82.2434 41.9773 82.4442 42.6477C82.6487 43.3144 82.9385 43.8201 83.3135 44.1648C83.6885 44.5057 84.1393 44.6761 84.6658 44.6761ZM94.5139 46.1932C93.6162 46.1894 92.8491 45.9527 92.2128 45.483C91.5764 45.0133 91.0896 44.3295 90.7525 43.4318C90.4154 42.5341 90.2468 41.4527 90.2468 40.1875C90.2468 38.9261 90.4154 37.8485 90.7525 36.9545C91.0934 36.0606 91.5821 35.3788 92.2184 34.9091C92.8586 34.4394 93.6237 34.2045 94.5139 34.2045C95.404 34.2045 96.1673 34.4413 96.8037 34.9148C97.44 35.3845 97.9268 36.0663 98.2639 36.9602C98.6048 37.8504 98.7753 38.9261 98.7753 40.1875C98.7753 41.4564 98.6067 42.5398 98.2696 43.4375C97.9325 44.3314 97.4457 45.0152 96.8093 45.4886C96.173 45.9583 95.4078 46.1932 94.5139 46.1932ZM94.5139 44.6761C95.3018 44.6761 95.9173 44.2917 96.3605 43.5227C96.8075 42.7538 97.0309 41.642 97.0309 40.1875C97.0309 39.2216 96.9287 38.4053 96.7241 37.7386C96.5234 37.0682 96.2336 36.5606 95.8548 36.2159C95.4798 35.8674 95.0328 35.6932 94.5139 35.6932C93.7298 35.6932 93.1143 36.0795 92.6673 36.8523C92.2203 37.625 91.995 38.7367 91.9912 40.1875C91.9912 41.1572 92.0915 41.9773 92.2923 42.6477C92.4968 43.3144 92.7866 43.8201 93.1616 44.1648C93.5366 44.5057 93.9874 44.6761 94.5139 44.6761Z" fill="#343433"/>
<path d="M179.82 31C179.82 30.7996 179.7 30.6185 179.516 30.54C179.331 30.4615 179.118 30.5007 178.973 30.6396L177.195 32.3492C174.548 34.8946 172.311 37.8348 170.565 41.0651C170.523 41.1378 170.5 41.2217 170.5 41.3112C170.5 41.5873 170.724 41.8112 171 41.8112H175.31V49C175.31 49.198 175.427 49.3774 175.608 49.4574C175.789 49.5374 176 49.503 176.147 49.3696L176.942 48.645C179.727 46.1083 182.09 43.1446 183.943 39.865L184.435 38.9942C184.523 38.8394 184.521 38.6498 184.432 38.4962C184.342 38.3426 184.178 38.2482 184 38.2482H179.82V31Z" fill="#00C978"/>
<path d="M191.066 43.1108V41.6442L195.386 34.8182H196.609V36.9062H195.863L192.955 41.5149V41.5945H198.986V43.1108H191.066ZM195.923 45V42.6634L195.943 42.0071V34.8182H197.683V45H195.923ZM199.97 43.1108V41.6442L204.29 34.8182H205.513V36.9062H204.768L201.859 41.5149V41.5945H207.89V43.1108H199.97ZM204.827 45V42.6634L204.847 42.0071V34.8182H206.587V45H204.827ZM212.598 45.1392C211.935 45.1392 211.342 45.0149 210.818 44.7663C210.294 44.5144 209.879 44.1697 209.57 43.7322C209.265 43.2947 209.103 42.7943 209.083 42.2308H210.873C210.906 42.6484 211.087 42.9898 211.415 43.255C211.743 43.5168 212.137 43.6477 212.598 43.6477C212.959 43.6477 213.281 43.5649 213.562 43.3991C213.844 43.2334 214.066 43.0031 214.229 42.7081C214.391 42.4131 214.471 42.0767 214.467 41.6989C214.471 41.3144 214.389 40.973 214.224 40.6747C214.058 40.3764 213.831 40.1428 213.543 39.9737C213.254 39.8014 212.923 39.7152 212.548 39.7152C212.243 39.7119 211.943 39.7682 211.648 39.8842C211.353 40.0002 211.12 40.1527 210.947 40.3416L209.282 40.0682L209.814 34.8182H215.72V36.3594H211.34L211.047 39.0589H211.106C211.295 38.8369 211.562 38.6529 211.907 38.5071C212.252 38.358 212.629 38.2834 213.04 38.2834C213.657 38.2834 214.207 38.4292 214.691 38.7209C215.175 39.0092 215.556 39.407 215.834 39.9141C216.113 40.4212 216.252 41.0012 216.252 41.6541C216.252 42.3269 216.096 42.9268 215.785 43.4538C215.477 43.9775 215.047 44.3902 214.497 44.6918C213.95 44.9901 213.317 45.1392 212.598 45.1392ZM217.597 45V34.8182H219.441V39.4964H219.566L223.538 34.8182H225.79L221.853 39.3871L225.825 45H223.608L220.57 40.6349L219.441 41.9673V45H217.597ZM227.273 45L225.115 37.3636H226.95L228.292 42.733H228.362L229.734 37.3636H231.549L232.921 42.7031H232.995L234.318 37.3636H236.157L233.995 45H232.12L230.689 39.8395H230.584L229.152 45H227.273ZM238.794 40.5256V45H236.994V34.8182H238.754V38.6612H238.843C239.022 38.2304 239.299 37.8906 239.674 37.642C240.051 37.3902 240.532 37.2642 241.115 37.2642C241.646 37.2642 242.108 37.3752 242.502 37.5973C242.897 37.8194 243.202 38.1442 243.417 38.5717C243.636 38.9993 243.745 39.5213 243.745 40.1378V45H241.946V40.4162C241.946 39.9025 241.813 39.5031 241.548 39.218C241.286 38.9297 240.918 38.7855 240.444 38.7855C240.126 38.7855 239.841 38.8551 239.589 38.9943C239.34 39.1302 239.145 39.3274 239.002 39.5859C238.863 39.8445 238.794 40.1577 238.794 40.5256Z" fill="#00C978"/>
<path d="M17.8261 96V87.2727H21.0221C21.6414 87.2727 22.1542 87.375 22.5604 87.5795C22.9667 87.7812 23.2707 88.0554 23.4724 88.402C23.6741 88.7457 23.7749 89.1335 23.7749 89.5653C23.7749 89.929 23.7082 90.2358 23.5747 90.4858C23.4411 90.733 23.2622 90.9318 23.0377 91.0824C22.8161 91.2301 22.5718 91.3381 22.3048 91.4062V91.4915C22.5945 91.5057 22.8772 91.5994 23.1528 91.7727C23.4312 91.9432 23.6613 92.1861 23.8431 92.5014C24.0249 92.8168 24.1158 93.2003 24.1158 93.652C24.1158 94.098 24.0107 94.4986 23.8005 94.8537C23.5931 95.206 23.2721 95.4858 22.8374 95.6932C22.4028 95.8977 21.8474 96 21.1712 96H17.8261ZM19.1428 94.8707H21.0434C21.6741 94.8707 22.1258 94.7486 22.3985 94.5043C22.6712 94.2599 22.8076 93.9545 22.8076 93.5881C22.8076 93.3125 22.738 93.0597 22.5988 92.8295C22.4596 92.5994 22.2607 92.4162 22.0022 92.2798C21.7465 92.1435 21.4425 92.0753 21.0903 92.0753H19.1428V94.8707ZM19.1428 91.0483H20.907C21.2025 91.0483 21.4681 90.9915 21.7039 90.8778C21.9425 90.7642 22.1315 90.6051 22.2707 90.4006C22.4127 90.1932 22.4837 89.9489 22.4837 89.6676C22.4837 89.3068 22.3573 89.0043 22.1045 88.7599C21.8516 88.5156 21.4639 88.3935 20.9411 88.3935H19.1428V91.0483ZM27.1202 96.1449C26.7054 96.1449 26.3304 96.0682 25.9952 95.9148C25.66 95.7585 25.3943 95.5327 25.1983 95.2372C25.0051 94.9418 24.9085 94.5795 24.9085 94.1506C24.9085 93.7812 24.9796 93.4773 25.1216 93.2386C25.2637 93 25.4554 92.8111 25.6969 92.6719C25.9384 92.5327 26.2083 92.4276 26.5066 92.3565C26.8048 92.2855 27.1088 92.2315 27.4185 92.1946C27.8105 92.1491 28.1287 92.1122 28.373 92.0838C28.6173 92.0526 28.7949 92.0028 28.9057 91.9347C29.0165 91.8665 29.0719 91.7557 29.0719 91.6023V91.5724C29.0719 91.2003 28.9668 90.9119 28.7566 90.7074C28.5492 90.5028 28.2395 90.4006 27.8276 90.4006C27.3986 90.4006 27.0605 90.4957 26.8134 90.6861C26.5691 90.8736 26.4 91.0824 26.3063 91.3125L25.1088 91.0398C25.2509 90.642 25.4583 90.321 25.731 90.0767C26.0066 89.8295 26.3233 89.6506 26.6813 89.5398C27.0392 89.4261 27.4156 89.3693 27.8105 89.3693C28.0719 89.3693 28.3489 89.4006 28.6415 89.4631C28.937 89.5227 29.2125 89.6335 29.4682 89.7955C29.7267 89.9574 29.9384 90.1889 30.1031 90.4901C30.2679 90.7884 30.3503 91.1761 30.3503 91.6534V96H29.106V95.1051H29.0548C28.9725 95.2699 28.8489 95.4318 28.6841 95.5909C28.5193 95.75 28.3077 95.8821 28.0492 95.9872C27.7906 96.0923 27.481 96.1449 27.1202 96.1449ZM27.3972 95.1222C27.7495 95.1222 28.0506 95.0526 28.3006 94.9134C28.5534 94.7741 28.7452 94.5923 28.8759 94.3679C29.0094 94.1406 29.0762 93.8977 29.0762 93.6392V92.7955C29.0307 92.8409 28.9426 92.8835 28.812 92.9233C28.6841 92.9602 28.5378 92.9929 28.373 93.0213C28.2083 93.0469 28.0477 93.071 27.8915 93.0938C27.7352 93.1136 27.6046 93.1307 27.4995 93.1449C27.2523 93.1761 27.0264 93.2287 26.8219 93.3026C26.6202 93.3764 26.4583 93.483 26.3361 93.6222C26.2168 93.7585 26.1571 93.9403 26.1571 94.1676C26.1571 94.483 26.2736 94.7216 26.5066 94.8835C26.7395 95.0426 27.0364 95.1222 27.3972 95.1222ZM36.5922 91.0526L35.4374 91.2571C35.3891 91.1094 35.3124 90.9687 35.2073 90.8352C35.105 90.7017 34.9658 90.5923 34.7897 90.5071C34.6135 90.4219 34.3934 90.3793 34.1292 90.3793C33.7684 90.3793 33.4672 90.4602 33.2257 90.6222C32.9843 90.7812 32.8635 90.9872 32.8635 91.2401C32.8635 91.4588 32.9445 91.6349 33.1064 91.7685C33.2684 91.902 33.5297 92.0114 33.8905 92.0966L34.9303 92.3352C35.5326 92.4744 35.9814 92.6889 36.2769 92.9787C36.5723 93.2685 36.7201 93.6449 36.7201 94.108C36.7201 94.5 36.6064 94.8494 36.3792 95.1562C36.1547 95.4602 35.8408 95.6989 35.4374 95.8722C35.0368 96.0455 34.5723 96.1321 34.0439 96.1321C33.311 96.1321 32.713 95.9759 32.2499 95.6634C31.7868 95.348 31.5027 94.9006 31.3976 94.321L32.6292 94.1335C32.7059 94.4545 32.8635 94.6974 33.1022 94.8622C33.3408 95.0241 33.6519 95.1051 34.0354 95.1051C34.453 95.1051 34.7868 95.0185 35.0368 94.8452C35.2868 94.669 35.4118 94.4545 35.4118 94.2017C35.4118 93.9972 35.3351 93.8253 35.1817 93.6861C35.0311 93.5469 34.7996 93.4418 34.4871 93.3707L33.3792 93.1278C32.7684 92.9886 32.3167 92.767 32.024 92.4631C31.7343 92.1591 31.5894 91.7741 31.5894 91.3082C31.5894 90.9219 31.6973 90.5838 31.9132 90.294C32.1292 90.0043 32.4274 89.7784 32.8081 89.6165C33.1888 89.4517 33.6249 89.3693 34.1164 89.3693C34.8238 89.3693 35.3806 89.5227 35.7868 89.8295C36.1931 90.1335 36.4615 90.5412 36.5922 91.0526ZM40.582 96.1321C39.9371 96.1321 39.3817 95.9943 38.9158 95.7188C38.4527 95.4403 38.0948 95.0497 37.842 94.5469C37.592 94.0412 37.467 93.4489 37.467 92.7699C37.467 92.0994 37.592 91.5085 37.842 90.9972C38.0948 90.4858 38.4471 90.0866 38.8988 89.7997C39.3533 89.5128 39.8846 89.3693 40.4925 89.3693C40.8618 89.3693 41.2198 89.4304 41.5664 89.5526C41.913 89.6747 42.2241 89.8665 42.4996 90.1278C42.7752 90.3892 42.9925 90.7287 43.1516 91.1463C43.3107 91.5611 43.3902 92.0653 43.3902 92.6591V93.1108H38.1871V92.1562H42.1417C42.1417 91.821 42.0735 91.5241 41.9371 91.2656C41.8008 91.0043 41.609 90.7983 41.3618 90.6477C41.1175 90.4972 40.8306 90.4219 40.501 90.4219C40.1431 90.4219 39.8306 90.5099 39.5635 90.6861C39.2993 90.8594 39.0948 91.0866 38.9499 91.3679C38.8079 91.6463 38.7368 91.9489 38.7368 92.2756V93.0213C38.7368 93.4588 38.8135 93.831 38.967 94.1378C39.1232 94.4446 39.3405 94.679 39.6189 94.8409C39.8973 95 40.2226 95.0795 40.5948 95.0795C40.8363 95.0795 41.0564 95.0455 41.2553 94.9773C41.4542 94.9062 41.626 94.8011 41.7709 94.6619C41.9158 94.5227 42.0266 94.3509 42.1033 94.1463L43.3093 94.3636C43.2127 94.7187 43.0394 95.0298 42.7894 95.2969C42.5422 95.5611 42.2312 95.767 41.8562 95.9148C41.484 96.0597 41.0593 96.1321 40.582 96.1321ZM46.8942 96.1278C46.3658 96.1278 45.8942 95.9929 45.4795 95.723C45.0675 95.4503 44.7437 95.0625 44.5079 94.5597C44.2749 94.054 44.1584 93.4474 44.1584 92.7401C44.1584 92.0327 44.2763 91.4276 44.5121 90.9247C44.7508 90.4219 45.0775 90.0369 45.4922 89.7699C45.907 89.5028 46.3772 89.3693 46.9028 89.3693C47.309 89.3693 47.6357 89.4375 47.8829 89.5739C48.1329 89.7074 48.3261 89.8636 48.4624 90.0426C48.6016 90.2216 48.7096 90.3793 48.7863 90.5156H48.863V87.2727H50.1371V96H48.8928V94.9815H48.7863C48.7096 95.1207 48.5988 95.2798 48.4539 95.4588C48.3119 95.6378 48.1158 95.794 47.8658 95.9276C47.6158 96.0611 47.292 96.1278 46.8942 96.1278ZM47.1755 95.0412C47.542 95.0412 47.8516 94.9446 48.1045 94.7514C48.3601 94.5554 48.5533 94.2841 48.684 93.9375C48.8175 93.5909 48.8843 93.1875 48.8843 92.7273C48.8843 92.2727 48.819 91.875 48.6883 91.5341C48.5576 91.1932 48.3658 90.9276 48.113 90.7372C47.8601 90.5469 47.5476 90.4517 47.1755 90.4517C46.792 90.4517 46.4724 90.5511 46.2167 90.75C45.961 90.9489 45.7678 91.2202 45.6371 91.5639C45.5093 91.9077 45.4454 92.2955 45.4454 92.7273C45.4454 93.1648 45.5107 93.5582 45.6414 93.9077C45.7721 94.2571 45.9653 94.5341 46.2209 94.7386C46.4795 94.9403 46.7976 95.0412 47.1755 95.0412ZM57.1686 96.1321C56.5549 96.1321 56.0194 95.9915 55.562 95.7102C55.1046 95.429 54.7495 95.0355 54.4967 94.5298C54.2438 94.0241 54.1174 93.4332 54.1174 92.7571C54.1174 92.0781 54.2438 91.4844 54.4967 90.9759C54.7495 90.4673 55.1046 90.0724 55.562 89.7912C56.0194 89.5099 56.5549 89.3693 57.1686 89.3693C57.7822 89.3693 58.3177 89.5099 58.7751 89.7912C59.2325 90.0724 59.5876 90.4673 59.8404 90.9759C60.0933 91.4844 60.2197 92.0781 60.2197 92.7571C60.2197 93.4332 60.0933 94.0241 59.8404 94.5298C59.5876 95.0355 59.2325 95.429 58.7751 95.7102C58.3177 95.9915 57.7822 96.1321 57.1686 96.1321ZM57.1728 95.0625C57.5705 95.0625 57.9001 94.9574 58.1615 94.7472C58.4228 94.5369 58.616 94.2571 58.741 93.9077C58.8688 93.5582 58.9328 93.1733 58.9328 92.7528C58.9328 92.3352 58.8688 91.9517 58.741 91.6023C58.616 91.25 58.4228 90.9673 58.1615 90.7543C57.9001 90.5412 57.5705 90.4347 57.1728 90.4347C56.7722 90.4347 56.4399 90.5412 56.1757 90.7543C55.9143 90.9673 55.7197 91.25 55.5919 91.6023C55.4669 91.9517 55.4044 92.3352 55.4044 92.7528C55.4044 93.1733 55.4669 93.5582 55.5919 93.9077C55.7197 94.2571 55.9143 94.5369 56.1757 94.7472C56.4399 94.9574 56.7722 95.0625 57.1728 95.0625ZM62.5561 92.1136V96H61.2819V89.4545H62.5049V90.5199H62.5859C62.7365 90.1733 62.9723 89.8949 63.2933 89.6847C63.6171 89.4744 64.0248 89.3693 64.5163 89.3693C64.9623 89.3693 65.3529 89.4631 65.6882 89.6506C66.0234 89.8352 66.2833 90.1108 66.468 90.4773C66.6527 90.8437 66.745 91.2969 66.745 91.8366V96H65.4708V91.9901C65.4708 91.5156 65.3473 91.1449 65.1001 90.8778C64.8529 90.608 64.5135 90.473 64.0816 90.473C63.7862 90.473 63.5234 90.5369 63.2933 90.6648C63.066 90.7926 62.8856 90.9801 62.7521 91.2273C62.6214 91.4716 62.5561 91.767 62.5561 92.1136ZM71.715 98.4545C71.5246 98.4545 71.3513 98.4389 71.1951 98.4077C71.0388 98.3793 70.9224 98.348 70.8457 98.3139L71.1525 97.2699C71.3854 97.3324 71.5928 97.3594 71.7746 97.3509C71.9565 97.3423 72.117 97.2741 72.2562 97.1463C72.3982 97.0185 72.5232 96.8097 72.6312 96.5199L72.7888 96.0852L70.394 89.4545H71.7576L73.4153 94.5341H73.4834L75.1411 89.4545H76.509L73.8116 96.8736C73.6866 97.2145 73.5275 97.5028 73.3343 97.7386C73.1411 97.9773 72.911 98.1563 72.644 98.2756C72.3769 98.3949 72.0672 98.4545 71.715 98.4545ZM79.8809 96.1321C79.2673 96.1321 78.7318 95.9915 78.2744 95.7102C77.817 95.429 77.4619 95.0355 77.209 94.5298C76.9562 94.0241 76.8298 93.4332 76.8298 92.7571C76.8298 92.0781 76.9562 91.4844 77.209 90.9759C77.4619 90.4673 77.817 90.0724 78.2744 89.7912C78.7318 89.5099 79.2673 89.3693 79.8809 89.3693C80.4945 89.3693 81.03 89.5099 81.4874 89.7912C81.9448 90.0724 82.2999 90.4673 82.5528 90.9759C82.8056 91.4844 82.932 92.0781 82.932 92.7571C82.932 93.4332 82.8056 94.0241 82.5528 94.5298C82.2999 95.0355 81.9448 95.429 81.4874 95.7102C81.03 95.9915 80.4945 96.1321 79.8809 96.1321ZM79.8852 95.0625C80.2829 95.0625 80.6124 94.9574 80.8738 94.7472C81.1352 94.5369 81.3283 94.2571 81.4533 93.9077C81.5812 93.5582 81.6451 93.1733 81.6451 92.7528C81.6451 92.3352 81.5812 91.9517 81.4533 91.6023C81.3283 91.25 81.1352 90.9673 80.8738 90.7543C80.6124 90.5412 80.2829 90.4347 79.8852 90.4347C79.4846 90.4347 79.1522 90.5412 78.888 90.7543C78.6266 90.9673 78.432 91.25 78.3042 91.6023C78.1792 91.9517 78.1167 92.3352 78.1167 92.7528C78.1167 93.1733 78.1792 93.5582 78.3042 93.9077C78.432 94.2571 78.6266 94.5369 78.888 94.7472C79.1522 94.9574 79.4846 95.0625 79.8852 95.0625ZM88.1406 93.2855V89.4545H89.419V96H88.1661V94.8665H88.098C87.9474 95.2159 87.7059 95.5071 87.3735 95.7401C87.044 95.9702 86.6335 96.0852 86.142 96.0852C85.7215 96.0852 85.3494 95.9929 85.0255 95.8082C84.7045 95.6207 84.4517 95.3438 84.267 94.9773C84.0852 94.6108 83.9943 94.1577 83.9943 93.6179V89.4545H85.2684V93.4645C85.2684 93.9105 85.392 94.2656 85.6392 94.5298C85.8863 94.794 86.2073 94.9261 86.6022 94.9261C86.8409 94.9261 87.0781 94.8665 87.3139 94.7472C87.5525 94.6278 87.7499 94.4474 87.9062 94.206C88.0653 93.9645 88.1434 93.6577 88.1406 93.2855ZM90.771 96V89.4545H92.0025V90.4943H92.0707C92.19 90.142 92.4002 89.8651 92.7014 89.6634C93.0054 89.4588 93.3491 89.3565 93.7326 89.3565C93.8122 89.3565 93.9059 89.3594 94.0139 89.3651C94.1247 89.3707 94.2113 89.3778 94.2738 89.3864V90.6051C94.2227 90.5909 94.1318 90.5753 94.0011 90.5582C93.8704 90.5384 93.7397 90.5284 93.6091 90.5284C93.3079 90.5284 93.0395 90.5923 92.8037 90.7202C92.5707 90.8452 92.386 91.0199 92.2497 91.2443C92.1133 91.4659 92.0451 91.7187 92.0451 92.0028V96H90.771ZM101.979 93.2855V89.4545H103.257V96H102.004V94.8665H101.936C101.785 95.2159 101.544 95.5071 101.211 95.7401C100.882 95.9702 100.471 96.0852 99.98 96.0852C99.5595 96.0852 99.1873 95.9929 98.8635 95.8082C98.5425 95.6207 98.2896 95.3438 98.105 94.9773C97.9231 94.6108 97.8322 94.1577 97.8322 93.6179V89.4545H99.1064V93.4645C99.1064 93.9105 99.23 94.2656 99.4771 94.5298C99.7243 94.794 100.045 94.9261 100.44 94.9261C100.679 94.9261 100.916 94.8665 101.152 94.7472C101.39 94.6278 101.588 94.4474 101.744 94.206C101.903 93.9645 101.981 93.6577 101.979 93.2855ZM109.514 91.0526L108.359 91.2571C108.311 91.1094 108.234 90.9687 108.129 90.8352C108.027 90.7017 107.887 90.5923 107.711 90.5071C107.535 90.4219 107.315 90.3793 107.051 90.3793C106.69 90.3793 106.389 90.4602 106.147 90.6222C105.906 90.7812 105.785 90.9872 105.785 91.2401C105.785 91.4588 105.866 91.6349 106.028 91.7685C106.19 91.902 106.451 92.0114 106.812 92.0966L107.852 92.3352C108.454 92.4744 108.903 92.6889 109.198 92.9787C109.494 93.2685 109.642 93.6449 109.642 94.108C109.642 94.5 109.528 94.8494 109.301 95.1562C109.076 95.4602 108.762 95.6989 108.359 95.8722C107.958 96.0455 107.494 96.1321 106.965 96.1321C106.233 96.1321 105.635 95.9759 105.171 95.6634C104.708 95.348 104.424 94.9006 104.319 94.321L105.551 94.1335C105.627 94.4545 105.785 94.6974 106.024 94.8622C106.262 95.0241 106.573 95.1051 106.957 95.1051C107.375 95.1051 107.708 95.0185 107.958 94.8452C108.208 94.669 108.333 94.4545 108.333 94.2017C108.333 93.9972 108.257 93.8253 108.103 93.6861C107.953 93.5469 107.721 93.4418 107.409 93.3707L106.301 93.1278C105.69 92.9886 105.238 92.767 104.946 92.4631C104.656 92.1591 104.511 91.7741 104.511 91.3082C104.511 90.9219 104.619 90.5838 104.835 90.294C105.051 90.0043 105.349 89.7784 105.73 89.6165C106.11 89.4517 106.546 89.3693 107.038 89.3693C107.745 89.3693 108.302 89.5227 108.708 89.8295C109.115 90.1335 109.383 90.5412 109.514 91.0526ZM112.587 96.1449C112.173 96.1449 111.798 96.0682 111.462 95.9148C111.127 95.7585 110.862 95.5327 110.666 95.2372C110.472 94.9418 110.376 94.5795 110.376 94.1506C110.376 93.7812 110.447 93.4773 110.589 93.2386C110.731 93 110.923 92.8111 111.164 92.6719C111.406 92.5327 111.675 92.4276 111.974 92.3565C112.272 92.2855 112.576 92.2315 112.886 92.1946C113.278 92.1491 113.596 92.1122 113.84 92.0838C114.085 92.0526 114.262 92.0028 114.373 91.9347C114.484 91.8665 114.539 91.7557 114.539 91.6023V91.5724C114.539 91.2003 114.434 90.9119 114.224 90.7074C114.016 90.5028 113.707 90.4006 113.295 90.4006C112.866 90.4006 112.528 90.4957 112.281 90.6861C112.036 90.8736 111.867 91.0824 111.773 91.3125L110.576 91.0398C110.718 90.642 110.925 90.321 111.198 90.0767C111.474 89.8295 111.791 89.6506 112.148 89.5398C112.506 89.4261 112.883 89.3693 113.278 89.3693C113.539 89.3693 113.816 89.4006 114.109 89.4631C114.404 89.5227 114.68 89.6335 114.935 89.7955C115.194 89.9574 115.406 90.1889 115.57 90.4901C115.735 90.7884 115.817 91.1761 115.817 91.6534V96H114.573V95.1051H114.522C114.44 95.2699 114.316 95.4318 114.151 95.5909C113.987 95.75 113.775 95.8821 113.516 95.9872C113.258 96.0923 112.948 96.1449 112.587 96.1449ZM112.864 95.1222C113.217 95.1222 113.518 95.0526 113.768 94.9134C114.021 94.7741 114.212 94.5923 114.343 94.3679C114.477 94.1406 114.543 93.8977 114.543 93.6392V92.7955C114.498 92.8409 114.41 92.8835 114.279 92.9233C114.151 92.9602 114.005 92.9929 113.84 93.0213C113.675 93.0469 113.515 93.071 113.359 93.0938C113.202 93.1136 113.072 93.1307 112.967 93.1449C112.719 93.1761 112.494 93.2287 112.289 93.3026C112.087 93.3764 111.925 93.483 111.803 93.6222C111.684 93.7585 111.624 93.9403 111.624 94.1676C111.624 94.483 111.741 94.7216 111.974 94.8835C112.207 95.0426 112.504 95.1222 112.864 95.1222ZM119.899 98.5909C119.379 98.5909 118.932 98.5227 118.557 98.3864C118.184 98.25 117.88 98.0696 117.645 97.8452C117.409 97.6207 117.233 97.375 117.116 97.108L118.211 96.6562C118.288 96.7812 118.39 96.9134 118.518 97.0526C118.649 97.1946 118.825 97.3153 119.047 97.4148C119.271 97.5142 119.559 97.5639 119.912 97.5639C120.395 97.5639 120.794 97.446 121.109 97.2102C121.424 96.9773 121.582 96.6051 121.582 96.0938V94.8068H121.501C121.424 94.946 121.314 95.1009 121.169 95.2713C121.027 95.4418 120.831 95.5895 120.581 95.7145C120.331 95.8395 120.005 95.902 119.605 95.902C119.088 95.902 118.622 95.7812 118.207 95.5398C117.795 95.2955 117.468 94.9361 117.227 94.4616C116.988 93.9844 116.869 93.3977 116.869 92.7017C116.869 92.0057 116.987 91.4091 117.223 90.9119C117.461 90.4148 117.788 90.0341 118.203 89.7699C118.618 89.5028 119.088 89.3693 119.613 89.3693C120.02 89.3693 120.348 89.4375 120.598 89.5739C120.848 89.7074 121.042 89.8636 121.182 90.0426C121.324 90.2216 121.433 90.3793 121.51 90.5156H121.603V89.4545H122.852V96.1449C122.852 96.7074 122.721 97.169 122.46 97.5298C122.199 97.8906 121.845 98.1577 121.399 98.331C120.956 98.5043 120.456 98.5909 119.899 98.5909ZM119.886 94.8452C120.253 94.8452 120.562 94.7599 120.815 94.5895C121.071 94.4162 121.264 94.169 121.395 93.848C121.528 93.5241 121.595 93.1364 121.595 92.6847C121.595 92.2443 121.53 91.8565 121.399 91.5213C121.268 91.1861 121.076 90.9247 120.824 90.7372C120.571 90.5469 120.258 90.4517 119.886 90.4517C119.503 90.4517 119.183 90.5511 118.927 90.75C118.672 90.946 118.478 91.2131 118.348 91.5511C118.22 91.8892 118.156 92.267 118.156 92.6847C118.156 93.1136 118.221 93.4901 118.352 93.8139C118.483 94.1378 118.676 94.3906 118.932 94.5724C119.19 94.7543 119.508 94.8452 119.886 94.8452ZM127.022 96.1321C126.377 96.1321 125.822 95.9943 125.356 95.7188C124.893 95.4403 124.535 95.0497 124.282 94.5469C124.032 94.0412 123.907 93.4489 123.907 92.7699C123.907 92.0994 124.032 91.5085 124.282 90.9972C124.535 90.4858 124.887 90.0866 125.339 89.7997C125.793 89.5128 126.324 89.3693 126.932 89.3693C127.302 89.3693 127.66 89.4304 128.006 89.5526C128.353 89.6747 128.664 89.8665 128.939 90.1278C129.215 90.3892 129.432 90.7287 129.591 91.1463C129.751 91.5611 129.83 92.0653 129.83 92.6591V93.1108H124.627V92.1562H128.582C128.582 91.821 128.513 91.5241 128.377 91.2656C128.241 91.0043 128.049 90.7983 127.802 90.6477C127.557 90.4972 127.27 90.4219 126.941 90.4219C126.583 90.4219 126.27 90.5099 126.003 90.6861C125.739 90.8594 125.535 91.0866 125.39 91.3679C125.248 91.6463 125.177 91.9489 125.177 92.2756V93.0213C125.177 93.4588 125.253 93.831 125.407 94.1378C125.563 94.4446 125.78 94.679 126.059 94.8409C126.337 95 126.662 95.0795 127.035 95.0795C127.276 95.0795 127.496 95.0455 127.695 94.9773C127.894 94.9062 128.066 94.8011 128.211 94.6619C128.356 94.5227 128.466 94.3509 128.543 94.1463L129.749 94.3636C129.653 94.7187 129.479 95.0298 129.229 95.2969C128.982 95.5611 128.671 95.767 128.296 95.9148C127.924 96.0597 127.499 96.1321 127.022 96.1321ZM133.7 98.4545V89.4545H134.944V90.5156H135.05C135.124 90.3793 135.231 90.2216 135.37 90.0426C135.509 89.8636 135.702 89.7074 135.95 89.5739C136.197 89.4375 136.523 89.3693 136.93 89.3693C137.458 89.3693 137.93 89.5028 138.344 89.7699C138.759 90.0369 139.085 90.4219 139.32 90.9247C139.559 91.4276 139.678 92.0327 139.678 92.7401C139.678 93.4474 139.56 94.054 139.325 94.5597C139.089 95.0625 138.765 95.4503 138.353 95.723C137.941 95.9929 137.471 96.1278 136.942 96.1278C136.545 96.1278 136.219 96.0611 135.967 95.9276C135.717 95.794 135.521 95.6378 135.379 95.4588C135.237 95.2798 135.127 95.1207 135.05 94.9815H134.974V98.4545H133.7ZM134.948 92.7273C134.948 93.1875 135.015 93.5909 135.148 93.9375C135.282 94.2841 135.475 94.5554 135.728 94.7514C135.981 94.9446 136.29 95.0412 136.657 95.0412C137.038 95.0412 137.356 94.9403 137.612 94.7386C137.867 94.5341 138.06 94.2571 138.191 93.9077C138.325 93.5582 138.391 93.1648 138.391 92.7273C138.391 92.2955 138.326 91.9077 138.195 91.5639C138.067 91.2202 137.874 90.9489 137.616 90.75C137.36 90.5511 137.04 90.4517 136.657 90.4517C136.288 90.4517 135.975 90.5469 135.719 90.7372C135.467 90.9276 135.275 91.1932 135.144 91.5341C135.014 91.875 134.948 92.2727 134.948 92.7273ZM142.651 96.1449C142.236 96.1449 141.861 96.0682 141.526 95.9148C141.19 95.7585 140.925 95.5327 140.729 95.2372C140.536 94.9418 140.439 94.5795 140.439 94.1506C140.439 93.7812 140.51 93.4773 140.652 93.2386C140.794 93 140.986 92.8111 141.227 92.6719C141.469 92.5327 141.739 92.4276 142.037 92.3565C142.335 92.2855 142.639 92.2315 142.949 92.1946C143.341 92.1491 143.659 92.1122 143.904 92.0838C144.148 92.0526 144.325 92.0028 144.436 91.9347C144.547 91.8665 144.602 91.7557 144.602 91.6023V91.5724C144.602 91.2003 144.497 90.9119 144.287 90.7074C144.08 90.5028 143.77 90.4006 143.358 90.4006C142.929 90.4006 142.591 90.4957 142.344 90.6861C142.1 90.8736 141.93 91.0824 141.837 91.3125L140.639 91.0398C140.781 90.642 140.989 90.321 141.261 90.0767C141.537 89.8295 141.854 89.6506 142.212 89.5398C142.57 89.4261 142.946 89.3693 143.341 89.3693C143.602 89.3693 143.879 89.4006 144.172 89.4631C144.467 89.5227 144.743 89.6335 144.999 89.7955C145.257 89.9574 145.469 90.1889 145.634 90.4901C145.798 90.7884 145.881 91.1761 145.881 91.6534V96H144.636V95.1051H144.585C144.503 95.2699 144.379 95.4318 144.215 95.5909C144.05 95.75 143.838 95.8821 143.58 95.9872C143.321 96.0923 143.011 96.1449 142.651 96.1449ZM142.928 95.1222C143.28 95.1222 143.581 95.0526 143.831 94.9134C144.084 94.7741 144.276 94.5923 144.406 94.3679C144.54 94.1406 144.607 93.8977 144.607 93.6392V92.7955C144.561 92.8409 144.473 92.8835 144.342 92.9233C144.215 92.9602 144.068 92.9929 143.904 93.0213C143.739 93.0469 143.578 93.071 143.422 93.0938C143.266 93.1136 143.135 93.1307 143.03 93.1449C142.783 93.1761 142.557 93.2287 142.352 93.3026C142.151 93.3764 141.989 93.483 141.867 93.6222C141.747 93.7585 141.688 93.9403 141.688 94.1676C141.688 94.483 141.804 94.7216 142.037 94.8835C142.27 95.0426 142.567 95.1222 142.928 95.1222ZM150.273 89.4545V90.4773H146.698V89.4545H150.273ZM147.657 87.8864H148.931V94.0781C148.931 94.3253 148.968 94.5114 149.042 94.6364C149.116 94.7585 149.211 94.8423 149.327 94.8878C149.447 94.9304 149.576 94.9517 149.715 94.9517C149.817 94.9517 149.907 94.9446 149.983 94.9304C150.06 94.9162 150.12 94.9048 150.162 94.8963L150.393 95.9489C150.319 95.9773 150.214 96.0057 150.077 96.0341C149.941 96.0653 149.77 96.0824 149.566 96.0852C149.231 96.0909 148.918 96.0312 148.628 95.9062C148.339 95.7812 148.104 95.5881 147.925 95.3267C147.746 95.0653 147.657 94.7372 147.657 94.3423V87.8864ZM154.378 89.4545V90.4773H150.803V89.4545H154.378ZM151.762 87.8864H153.036V94.0781C153.036 94.3253 153.073 94.5114 153.147 94.6364C153.22 94.7585 153.316 94.8423 153.432 94.8878C153.551 94.9304 153.681 94.9517 153.82 94.9517C153.922 94.9517 154.012 94.9446 154.088 94.9304C154.165 94.9162 154.225 94.9048 154.267 94.8963L154.497 95.9489C154.424 95.9773 154.318 96.0057 154.182 96.0341C154.046 96.0653 153.875 96.0824 153.671 96.0852C153.335 96.0909 153.023 96.0312 152.733 95.9062C152.443 95.7812 152.209 95.5881 152.03 95.3267C151.851 95.0653 151.762 94.7372 151.762 94.3423V87.8864ZM158.178 96.1321C157.533 96.1321 156.978 95.9943 156.512 95.7188C156.049 95.4403 155.691 95.0497 155.438 94.5469C155.188 94.0412 155.063 93.4489 155.063 92.7699C155.063 92.0994 155.188 91.5085 155.438 90.9972C155.691 90.4858 156.043 90.0866 156.495 89.7997C156.95 89.5128 157.481 89.3693 158.089 89.3693C158.458 89.3693 158.816 89.4304 159.163 89.5526C159.509 89.6747 159.82 89.8665 160.096 90.1278C160.371 90.3892 160.589 90.7287 160.748 91.1463C160.907 91.5611 160.986 92.0653 160.986 92.6591V93.1108H155.783V92.1562H159.738C159.738 91.821 159.67 91.5241 159.533 91.2656C159.397 91.0043 159.205 90.7983 158.958 90.6477C158.714 90.4972 158.427 90.4219 158.097 90.4219C157.739 90.4219 157.427 90.5099 157.16 90.6861C156.896 90.8594 156.691 91.0866 156.546 91.3679C156.404 91.6463 156.333 91.9489 156.333 92.2756V93.0213C156.333 93.4588 156.41 93.831 156.563 94.1378C156.719 94.4446 156.937 94.679 157.215 94.8409C157.494 95 157.819 95.0795 158.191 95.0795C158.433 95.0795 158.653 95.0455 158.852 94.9773C159.05 94.9062 159.222 94.8011 159.367 94.6619C159.512 94.5227 159.623 94.3509 159.7 94.1463L160.906 94.3636C160.809 94.7187 160.636 95.0298 160.386 95.2969C160.138 95.5611 159.827 95.767 159.452 95.9148C159.08 96.0597 158.656 96.1321 158.178 96.1321ZM162.04 96V89.4545H163.272V90.4943H163.34C163.459 90.142 163.669 89.8651 163.971 89.6634C164.275 89.4588 164.618 89.3565 165.002 89.3565C165.081 89.3565 165.175 89.3594 165.283 89.3651C165.394 89.3707 165.481 89.3778 165.543 89.3864V90.6051C165.492 90.5909 165.401 90.5753 165.27 90.5582C165.14 90.5384 165.009 90.5284 164.878 90.5284C164.577 90.5284 164.309 90.5923 164.073 90.7202C163.84 90.8452 163.655 91.0199 163.519 91.2443C163.383 91.4659 163.314 91.7187 163.314 92.0028V96H162.04ZM167.56 92.1136V96H166.286V89.4545H167.509V90.5199H167.59C167.74 90.1733 167.976 89.8949 168.297 89.6847C168.621 89.4744 169.029 89.3693 169.52 89.3693C169.966 89.3693 170.357 89.4631 170.692 89.6506C171.027 89.8352 171.287 90.1108 171.472 90.4773C171.656 90.8437 171.749 91.2969 171.749 91.8366V96H170.475V91.9901C170.475 91.5156 170.351 91.1449 170.104 90.8778C169.857 90.608 169.517 90.473 169.085 90.473C168.79 90.473 168.527 90.5369 168.297 90.6648C168.07 90.7926 167.889 90.9801 167.756 91.2273C167.625 91.4716 167.56 91.767 167.56 92.1136ZM178.969 89.4545V90.4773H175.393V89.4545H178.969ZM176.352 87.8864H177.626V94.0781C177.626 94.3253 177.663 94.5114 177.737 94.6364C177.811 94.7585 177.906 94.8423 178.023 94.8878C178.142 94.9304 178.271 94.9517 178.41 94.9517C178.513 94.9517 178.602 94.9446 178.679 94.9304C178.756 94.9162 178.815 94.9048 178.858 94.8963L179.088 95.9489C179.014 95.9773 178.909 96.0057 178.773 96.0341C178.636 96.0653 178.466 96.0824 178.261 96.0852C177.926 96.0909 177.614 96.0312 177.324 95.9062C177.034 95.7812 176.8 95.5881 176.621 95.3267C176.442 95.0653 176.352 94.7372 176.352 94.3423V87.8864ZM181.433 92.1136V96H180.159V87.2727H181.416V90.5199H181.497C181.65 90.1676 181.885 89.8878 182.2 89.6804C182.515 89.473 182.927 89.3693 183.436 89.3693C183.885 89.3693 184.277 89.4616 184.612 89.6463C184.95 89.831 185.211 90.1065 185.396 90.473C185.584 90.8366 185.677 91.2912 185.677 91.8366V96H184.403V91.9901C184.403 91.5099 184.28 91.1378 184.032 90.8736C183.785 90.6065 183.441 90.473 183.001 90.473C182.7 90.473 182.43 90.5369 182.191 90.6648C181.956 90.7926 181.77 90.9801 181.633 91.2273C181.5 91.4716 181.433 91.767 181.433 92.1136ZM187.018 96V89.4545H188.292V96H187.018ZM187.661 88.4446C187.439 88.4446 187.249 88.3707 187.09 88.223C186.934 88.0724 186.856 87.8935 186.856 87.6861C186.856 87.4759 186.934 87.2969 187.09 87.1491C187.249 86.9986 187.439 86.9233 187.661 86.9233C187.883 86.9233 188.072 86.9986 188.228 87.1491C188.387 87.2969 188.466 87.4759 188.466 87.6861C188.466 87.8935 188.387 88.0724 188.228 88.223C188.072 88.3707 187.883 88.4446 187.661 88.4446ZM194.551 91.0526L193.396 91.2571C193.348 91.1094 193.271 90.9687 193.166 90.8352C193.063 90.7017 192.924 90.5923 192.748 90.5071C192.572 90.4219 192.352 90.3793 192.088 90.3793C191.727 90.3793 191.426 90.4602 191.184 90.6222C190.943 90.7812 190.822 90.9872 190.822 91.2401C190.822 91.4588 190.903 91.6349 191.065 91.7685C191.227 91.902 191.488 92.0114 191.849 92.0966L192.889 92.3352C193.491 92.4744 193.94 92.6889 194.235 92.9787C194.531 93.2685 194.678 93.6449 194.678 94.108C194.678 94.5 194.565 94.8494 194.338 95.1562C194.113 95.4602 193.799 95.6989 193.396 95.8722C192.995 96.0455 192.531 96.1321 192.002 96.1321C191.269 96.1321 190.671 95.9759 190.208 95.6634C189.745 95.348 189.461 94.9006 189.356 94.321L190.588 94.1335C190.664 94.4545 190.822 94.6974 191.061 94.8622C191.299 95.0241 191.61 95.1051 191.994 95.1051C192.411 95.1051 192.745 95.0185 192.995 94.8452C193.245 94.669 193.37 94.4545 193.37 94.2017C193.37 93.9972 193.294 93.8253 193.14 93.6861C192.99 93.5469 192.758 93.4418 192.446 93.3707L191.338 93.1278C190.727 92.9886 190.275 92.767 189.982 92.4631C189.693 92.1591 189.548 91.7741 189.548 91.3082C189.548 90.9219 189.656 90.5838 189.872 90.294C190.088 90.0043 190.386 89.7784 190.767 89.6165C191.147 89.4517 191.583 89.3693 192.075 89.3693C192.782 89.3693 193.339 89.5227 193.745 89.8295C194.152 90.1335 194.42 90.5412 194.551 91.0526ZM203.44 91.0526L202.285 91.2571C202.237 91.1094 202.16 90.9687 202.055 90.8352C201.953 90.7017 201.814 90.5923 201.637 90.5071C201.461 90.4219 201.241 90.3793 200.977 90.3793C200.616 90.3793 200.315 90.4602 200.074 90.6222C199.832 90.7812 199.711 90.9872 199.711 91.2401C199.711 91.4588 199.792 91.6349 199.954 91.7685C200.116 91.902 200.378 92.0114 200.738 92.0966L201.778 92.3352C202.38 92.4744 202.829 92.6889 203.125 92.9787C203.42 93.2685 203.568 93.6449 203.568 94.108C203.568 94.5 203.454 94.8494 203.227 95.1562C203.003 95.4602 202.689 95.6989 202.285 95.8722C201.885 96.0455 201.42 96.1321 200.892 96.1321C200.159 96.1321 199.561 95.9759 199.098 95.6634C198.635 95.348 198.351 94.9006 198.245 94.321L199.477 94.1335C199.554 94.4545 199.711 94.6974 199.95 94.8622C200.189 95.0241 200.5 95.1051 200.883 95.1051C201.301 95.1051 201.635 95.0185 201.885 94.8452C202.135 94.669 202.26 94.4545 202.26 94.2017C202.26 93.9972 202.183 93.8253 202.03 93.6861C201.879 93.5469 201.647 93.4418 201.335 93.3707L200.227 93.1278C199.616 92.9886 199.164 92.767 198.872 92.4631C198.582 92.1591 198.437 91.7741 198.437 91.3082C198.437 90.9219 198.545 90.5838 198.761 90.294C198.977 90.0043 199.275 89.7784 199.656 89.6165C200.037 89.4517 200.473 89.3693 200.964 89.3693C201.672 89.3693 202.228 89.5227 202.635 89.8295C203.041 90.1335 203.309 90.5412 203.44 91.0526ZM205.883 92.1136V96H204.609V87.2727H205.866V90.5199H205.947C206.1 90.1676 206.335 89.8878 206.65 89.6804C206.965 89.473 207.377 89.3693 207.886 89.3693C208.335 89.3693 208.727 89.4616 209.062 89.6463C209.4 89.831 209.661 90.1065 209.846 90.473C210.034 90.8366 210.127 91.2912 210.127 91.8366V96H208.853V91.9901C208.853 91.5099 208.73 91.1378 208.482 90.8736C208.235 90.6065 207.891 90.473 207.451 90.473C207.15 90.473 206.88 90.5369 206.641 90.6648C206.406 90.7926 206.22 90.9801 206.083 91.2273C205.95 91.4716 205.883 91.767 205.883 92.1136ZM214.225 96.1321C213.611 96.1321 213.075 95.9915 212.618 95.7102C212.161 95.429 211.806 95.0355 211.553 94.5298C211.3 94.0241 211.174 93.4332 211.174 92.7571C211.174 92.0781 211.3 91.4844 211.553 90.9759C211.806 90.4673 212.161 90.0724 212.618 89.7912C213.075 89.5099 213.611 89.3693 214.225 89.3693C214.838 89.3693 215.374 89.5099 215.831 89.7912C216.289 90.0724 216.644 90.4673 216.897 90.9759C217.149 91.4844 217.276 92.0781 217.276 92.7571C217.276 93.4332 217.149 94.0241 216.897 94.5298C216.644 95.0355 216.289 95.429 215.831 95.7102C215.374 95.9915 214.838 96.1321 214.225 96.1321ZM214.229 95.0625C214.627 95.0625 214.956 94.9574 215.218 94.7472C215.479 94.5369 215.672 94.2571 215.797 93.9077C215.925 93.5582 215.989 93.1733 215.989 92.7528C215.989 92.3352 215.925 91.9517 215.797 91.6023C215.672 91.25 215.479 90.9673 215.218 90.7543C214.956 90.5412 214.627 90.4347 214.229 90.4347C213.828 90.4347 213.496 90.5412 213.232 90.7543C212.97 90.9673 212.776 91.25 212.648 91.6023C212.523 91.9517 212.46 92.3352 212.46 92.7528C212.46 93.1733 212.523 93.5582 212.648 93.9077C212.776 94.2571 212.97 94.5369 213.232 94.7472C213.496 94.9574 213.828 95.0625 214.229 95.0625ZM222.484 93.2855V89.4545H223.763V96H222.51V94.8665H222.442C222.291 95.2159 222.05 95.5071 221.717 95.7401C221.388 95.9702 220.977 96.0852 220.486 96.0852C220.065 96.0852 219.693 95.9929 219.369 95.8082C219.048 95.6207 218.795 95.3438 218.611 94.9773C218.429 94.6108 218.338 94.1577 218.338 93.6179V89.4545H219.612V93.4645C219.612 93.9105 219.736 94.2656 219.983 94.5298C220.23 94.794 220.551 94.9261 220.946 94.9261C221.185 94.9261 221.422 94.8665 221.658 94.7472C221.896 94.6278 222.094 94.4474 222.25 94.206C222.409 93.9645 222.487 93.6577 222.484 93.2855ZM226.389 87.2727V96H225.115V87.2727H226.389ZM230.193 96.1278C229.665 96.1278 229.193 95.9929 228.779 95.723C228.367 95.4503 228.043 95.0625 227.807 94.5597C227.574 94.054 227.457 93.4474 227.457 92.7401C227.457 92.0327 227.575 91.4276 227.811 90.9247C228.05 90.4219 228.377 90.0369 228.791 89.7699C229.206 89.5028 229.676 89.3693 230.202 89.3693C230.608 89.3693 230.935 89.4375 231.182 89.5739C231.432 89.7074 231.625 89.8636 231.761 90.0426C231.901 90.2216 232.009 90.3793 232.085 90.5156H232.162V87.2727H233.436V96H232.192V94.9815H232.085C232.009 95.1207 231.898 95.2798 231.753 95.4588C231.611 95.6378 231.415 95.794 231.165 95.9276C230.915 96.0611 230.591 96.1278 230.193 96.1278ZM230.475 95.0412C230.841 95.0412 231.151 94.9446 231.404 94.7514C231.659 94.5554 231.852 94.2841 231.983 93.9375C232.117 93.5909 232.183 93.1875 232.183 92.7273C232.183 92.2727 232.118 91.875 231.987 91.5341C231.857 91.1932 231.665 90.9276 231.412 90.7372C231.159 90.5469 230.847 90.4517 230.475 90.4517C230.091 90.4517 229.771 90.5511 229.516 90.75C229.26 90.9489 229.067 91.2202 228.936 91.5639C228.808 91.9077 228.744 92.2955 228.744 92.7273C228.744 93.1648 228.81 93.5582 228.94 93.9077C229.071 94.2571 229.264 94.5341 229.52 94.7386C229.779 94.9403 230.097 95.0412 230.475 95.0412ZM238.985 87.2727V96H237.711V87.2727H238.985ZM242.244 96.1449C241.829 96.1449 241.454 96.0682 241.119 95.9148C240.783 95.7585 240.518 95.5327 240.322 95.2372C240.129 94.9418 240.032 94.5795 240.032 94.1506C240.032 93.7812 240.103 93.4773 240.245 93.2386C240.387 93 240.579 92.8111 240.82 92.6719C241.062 92.5327 241.332 92.4276 241.63 92.3565C241.928 92.2855 242.232 92.2315 242.542 92.1946C242.934 92.1491 243.252 92.1122 243.496 92.0838C243.741 92.0526 243.918 92.0028 244.029 91.9347C244.14 91.8665 244.195 91.7557 244.195 91.6023V91.5724C244.195 91.2003 244.09 90.9119 243.88 90.7074C243.673 90.5028 243.363 90.4006 242.951 90.4006C242.522 90.4006 242.184 90.4957 241.937 90.6861C241.692 90.8736 241.523 91.0824 241.43 91.3125L240.232 91.0398C240.374 90.642 240.582 90.321 240.854 90.0767C241.13 89.8295 241.447 89.6506 241.805 89.5398C242.163 89.4261 242.539 89.3693 242.934 89.3693C243.195 89.3693 243.472 89.4006 243.765 89.4631C244.06 89.5227 244.336 89.6335 244.592 89.7955C244.85 89.9574 245.062 90.1889 245.227 90.4901C245.391 90.7884 245.474 91.1761 245.474 91.6534V96H244.229V95.1051H244.178C244.096 95.2699 243.972 95.4318 243.808 95.5909C243.643 95.75 243.431 95.8821 243.173 95.9872C242.914 96.0923 242.604 96.1449 242.244 96.1449ZM242.521 95.1222C242.873 95.1222 243.174 95.0526 243.424 94.9134C243.677 94.7741 243.869 94.5923 243.999 94.3679C244.133 94.1406 244.2 93.8977 244.2 93.6392V92.7955C244.154 92.8409 244.066 92.8835 243.935 92.9233C243.808 92.9602 243.661 92.9929 243.496 93.0213C243.332 93.0469 243.171 93.071 243.015 93.0938C242.859 93.1136 242.728 93.1307 242.623 93.1449C242.376 93.1761 242.15 93.2287 241.945 93.3026C241.744 93.3764 241.582 93.483 241.46 93.6222C241.34 93.7585 241.281 93.9403 241.281 94.1676C241.281 94.483 241.397 94.7216 241.63 94.8835C241.863 95.0426 242.16 95.1222 242.521 95.1222ZM251.716 91.0526L250.561 91.2571C250.513 91.1094 250.436 90.9687 250.331 90.8352C250.228 90.7017 250.089 90.5923 249.913 90.5071C249.737 90.4219 249.517 90.3793 249.253 90.3793C248.892 90.3793 248.591 90.4602 248.349 90.6222C248.108 90.7812 247.987 90.9872 247.987 91.2401C247.987 91.4588 248.068 91.6349 248.23 91.7685C248.392 91.902 248.653 92.0114 249.014 92.0966L250.054 92.3352C250.656 92.4744 251.105 92.6889 251.4 92.9787C251.696 93.2685 251.844 93.6449 251.844 94.108C251.844 94.5 251.73 94.8494 251.503 95.1562C251.278 95.4602 250.964 95.6989 250.561 95.8722C250.16 96.0455 249.696 96.1321 249.167 96.1321C248.434 96.1321 247.836 95.9759 247.373 95.6634C246.91 95.348 246.626 94.9006 246.521 94.321L247.753 94.1335C247.829 94.4545 247.987 94.6974 248.226 94.8622C248.464 95.0241 248.775 95.1051 249.159 95.1051C249.576 95.1051 249.91 95.0185 250.16 94.8452C250.41 94.669 250.535 94.4545 250.535 94.2017C250.535 93.9972 250.459 93.8253 250.305 93.6861C250.155 93.5469 249.923 93.4418 249.611 93.3707L248.503 93.1278C247.892 92.9886 247.44 92.767 247.147 92.4631C246.858 92.1591 246.713 91.7741 246.713 91.3082C246.713 90.9219 246.821 90.5838 247.037 90.294C247.253 90.0043 247.551 89.7784 247.932 89.6165C248.312 89.4517 248.748 89.3693 249.24 89.3693C249.947 89.3693 250.504 89.5227 250.91 89.8295C251.317 90.1335 251.585 90.5412 251.716 91.0526ZM255.94 89.4545V90.4773H252.365V89.4545H255.94ZM253.323 87.8864H254.597V94.0781C254.597 94.3253 254.634 94.5114 254.708 94.6364C254.782 94.7585 254.877 94.8423 254.994 94.8878C255.113 94.9304 255.242 94.9517 255.382 94.9517C255.484 94.9517 255.573 94.9446 255.65 94.9304C255.727 94.9162 255.786 94.9048 255.829 94.8963L256.059 95.9489C255.985 95.9773 255.88 96.0057 255.744 96.0341C255.607 96.0653 255.437 96.0824 255.232 96.0852C254.897 96.0909 254.585 96.0312 254.295 95.9062C254.005 95.7812 253.771 95.5881 253.592 95.3267C253.413 95.0653 253.323 94.7372 253.323 94.3423V87.8864ZM76.5039 111.145C76.0892 111.145 75.7142 111.068 75.3789 110.915C75.0437 110.759 74.7781 110.533 74.5821 110.237C74.3889 109.942 74.2923 109.58 74.2923 109.151C74.2923 108.781 74.3633 108.477 74.5054 108.239C74.6474 108 74.8392 107.811 75.0806 107.672C75.3221 107.533 75.592 107.428 75.8903 107.357C76.1886 107.286 76.4926 107.232 76.8022 107.195C77.1943 107.149 77.5125 107.112 77.7568 107.084C78.0011 107.053 78.1787 107.003 78.2895 106.935C78.4002 106.866 78.4556 106.756 78.4556 106.602V106.572C78.4556 106.2 78.3505 105.912 78.1403 105.707C77.9329 105.503 77.6233 105.401 77.2113 105.401C76.7823 105.401 76.4443 105.496 76.1971 105.686C75.9528 105.874 75.7838 106.082 75.69 106.312L74.4926 106.04C74.6346 105.642 74.842 105.321 75.1147 105.077C75.3903 104.83 75.7071 104.651 76.065 104.54C76.423 104.426 76.7994 104.369 77.1943 104.369C77.4556 104.369 77.7326 104.401 78.0252 104.463C78.3207 104.523 78.5963 104.634 78.852 104.795C79.1105 104.957 79.3221 105.189 79.4869 105.49C79.6517 105.788 79.7341 106.176 79.7341 106.653V111H78.4897V110.105H78.4386C78.3562 110.27 78.2326 110.432 78.0679 110.591C77.9031 110.75 77.6914 110.882 77.4329 110.987C77.1744 111.092 76.8647 111.145 76.5039 111.145ZM76.7809 110.122C77.1332 110.122 77.4343 110.053 77.6843 109.913C77.9372 109.774 78.1289 109.592 78.2596 109.368C78.3931 109.141 78.4599 108.898 78.4599 108.639V107.795C78.4145 107.841 78.3264 107.884 78.1957 107.923C78.0679 107.96 77.9216 107.993 77.7568 108.021C77.592 108.047 77.4315 108.071 77.2752 108.094C77.119 108.114 76.9883 108.131 76.8832 108.145C76.636 108.176 76.4102 108.229 76.2056 108.303C76.0039 108.376 75.842 108.483 75.7198 108.622C75.6005 108.759 75.5409 108.94 75.5409 109.168C75.5409 109.483 75.6573 109.722 75.8903 109.884C76.1233 110.043 76.4201 110.122 76.7809 110.122ZM81.0711 113.455V104.455H82.3155V105.516H82.422C82.4959 105.379 82.6024 105.222 82.7416 105.043C82.8808 104.864 83.074 104.707 83.3211 104.574C83.5683 104.438 83.895 104.369 84.3013 104.369C84.8297 104.369 85.3013 104.503 85.716 104.77C86.1308 105.037 86.4561 105.422 86.6919 105.925C86.9305 106.428 87.0498 107.033 87.0498 107.74C87.0498 108.447 86.9319 109.054 86.6961 109.56C86.4603 110.062 86.1365 110.45 85.7246 110.723C85.3126 110.993 84.8424 111.128 84.314 111.128C83.9163 111.128 83.591 111.061 83.3382 110.928C83.0882 110.794 82.8922 110.638 82.7501 110.459C82.6081 110.28 82.4987 110.121 82.422 109.982H82.3453V113.455H81.0711ZM82.3197 107.727C82.3197 108.187 82.3865 108.591 82.52 108.938C82.6535 109.284 82.8467 109.555 83.0996 109.751C83.3524 109.945 83.6621 110.041 84.0285 110.041C84.4092 110.041 84.7274 109.94 84.9831 109.739C85.2388 109.534 85.4319 109.257 85.5626 108.908C85.6961 108.558 85.7629 108.165 85.7629 107.727C85.7629 107.295 85.6976 106.908 85.5669 106.564C85.439 106.22 85.2459 105.949 84.9873 105.75C84.7317 105.551 84.4121 105.452 84.0285 105.452C83.6592 105.452 83.3467 105.547 83.091 105.737C82.8382 105.928 82.6464 106.193 82.5157 106.534C82.3851 106.875 82.3197 107.273 82.3197 107.727ZM88.1174 113.455V104.455H89.3617V105.516H89.4682C89.5421 105.379 89.6486 105.222 89.7878 105.043C89.927 104.864 90.1202 104.707 90.3674 104.574C90.6145 104.438 90.9413 104.369 91.3475 104.369C91.8759 104.369 92.3475 104.503 92.7623 104.77C93.177 105.037 93.5023 105.422 93.7381 105.925C93.9768 106.428 94.0961 107.033 94.0961 107.74C94.0961 108.447 93.9782 109.054 93.7424 109.56C93.5066 110.062 93.1827 110.45 92.7708 110.723C92.3589 110.993 91.8887 111.128 91.3603 111.128C90.9626 111.128 90.6373 111.061 90.3844 110.928C90.1344 110.794 89.9384 110.638 89.7964 110.459C89.6543 110.28 89.5449 110.121 89.4682 109.982H89.3915V113.455H88.1174ZM89.366 107.727C89.366 108.187 89.4327 108.591 89.5663 108.938C89.6998 109.284 89.893 109.555 90.1458 109.751C90.3986 109.945 90.7083 110.041 91.0748 110.041C91.4555 110.041 91.7736 109.94 92.0293 109.739C92.285 109.534 92.4782 109.257 92.6089 108.908C92.7424 108.558 92.8092 108.165 92.8092 107.727C92.8092 107.295 92.7438 106.908 92.6131 106.564C92.4853 106.22 92.2921 105.949 92.0336 105.75C91.7779 105.551 91.4583 105.452 91.0748 105.452C90.7055 105.452 90.393 105.547 90.1373 105.737C89.8844 105.928 89.6927 106.193 89.562 106.534C89.4313 106.875 89.366 107.273 89.366 107.727ZM95.1636 111V104.455H96.3952V105.494H96.4634C96.5827 105.142 96.7929 104.865 97.094 104.663C97.398 104.459 97.7418 104.357 98.1253 104.357C98.2048 104.357 98.2986 104.359 98.4065 104.365C98.5173 104.371 98.604 104.378 98.6665 104.386V105.605C98.6153 105.591 98.5244 105.575 98.3938 105.558C98.2631 105.538 98.1324 105.528 98.0017 105.528C97.7006 105.528 97.4321 105.592 97.1963 105.72C96.9634 105.845 96.7787 106.02 96.6423 106.244C96.506 106.466 96.4378 106.719 96.4378 107.003V111H95.1636ZM101.932 111.132C101.318 111.132 100.783 110.991 100.325 110.71C99.8679 110.429 99.5128 110.036 99.26 109.53C99.0071 109.024 98.8807 108.433 98.8807 107.757C98.8807 107.078 99.0071 106.484 99.26 105.976C99.5128 105.467 99.8679 105.072 100.325 104.791C100.783 104.51 101.318 104.369 101.932 104.369C102.545 104.369 103.081 104.51 103.538 104.791C103.996 105.072 104.351 105.467 104.604 105.976C104.857 106.484 104.983 107.078 104.983 107.757C104.983 108.433 104.857 109.024 104.604 109.53C104.351 110.036 103.996 110.429 103.538 110.71C103.081 110.991 102.545 111.132 101.932 111.132ZM101.936 110.062C102.334 110.062 102.663 109.957 102.925 109.747C103.186 109.537 103.379 109.257 103.504 108.908C103.632 108.558 103.696 108.173 103.696 107.753C103.696 107.335 103.632 106.952 103.504 106.602C103.379 106.25 103.186 105.967 102.925 105.754C102.663 105.541 102.334 105.435 101.936 105.435C101.536 105.435 101.203 105.541 100.939 105.754C100.678 105.967 100.483 106.25 100.355 106.602C100.23 106.952 100.168 107.335 100.168 107.753C100.168 108.173 100.23 108.558 100.355 108.908C100.483 109.257 100.678 109.537 100.939 109.747C101.203 109.957 101.536 110.062 101.936 110.062ZM106.793 104.455L108.238 107.003L109.695 104.455H111.089L109.047 107.727L111.106 111H109.712L108.238 108.554L106.768 111H105.37L107.407 107.727L105.395 104.455H106.793ZM112.037 111V104.455H113.311V111H112.037ZM112.68 103.445C112.459 103.445 112.268 103.371 112.109 103.223C111.953 103.072 111.875 102.893 111.875 102.686C111.875 102.476 111.953 102.297 112.109 102.149C112.268 101.999 112.459 101.923 112.68 101.923C112.902 101.923 113.091 101.999 113.247 102.149C113.406 102.297 113.486 102.476 113.486 102.686C113.486 102.893 113.406 103.072 113.247 103.223C113.091 103.371 112.902 103.445 112.68 103.445ZM114.665 111V104.455H115.888V105.52H115.969C116.105 105.159 116.328 104.878 116.638 104.676C116.948 104.472 117.318 104.369 117.75 104.369C118.188 104.369 118.554 104.472 118.85 104.676C119.148 104.881 119.368 105.162 119.51 105.52H119.578C119.735 105.17 119.983 104.892 120.324 104.685C120.665 104.474 121.071 104.369 121.543 104.369C122.137 104.369 122.621 104.555 122.996 104.928C123.374 105.3 123.563 105.861 123.563 106.611V111H122.289V106.73C122.289 106.287 122.168 105.966 121.926 105.767C121.685 105.568 121.397 105.469 121.061 105.469C120.647 105.469 120.324 105.597 120.094 105.852C119.864 106.105 119.749 106.43 119.749 106.828V111H118.479V106.649C118.479 106.294 118.368 106.009 118.147 105.793C117.925 105.577 117.637 105.469 117.282 105.469C117.04 105.469 116.817 105.533 116.612 105.661C116.411 105.786 116.247 105.96 116.122 106.185C116 106.409 115.939 106.669 115.939 106.964V111H114.665ZM126.815 111.145C126.401 111.145 126.026 111.068 125.69 110.915C125.355 110.759 125.089 110.533 124.893 110.237C124.7 109.942 124.604 109.58 124.604 109.151C124.604 108.781 124.675 108.477 124.817 108.239C124.959 108 125.151 107.811 125.392 107.672C125.634 107.533 125.903 107.428 126.202 107.357C126.5 107.286 126.804 107.232 127.114 107.195C127.506 107.149 127.824 107.112 128.068 107.084C128.313 107.053 128.49 107.003 128.601 106.935C128.712 106.866 128.767 106.756 128.767 106.602V106.572C128.767 106.2 128.662 105.912 128.452 105.707C128.244 105.503 127.935 105.401 127.523 105.401C127.094 105.401 126.756 105.496 126.509 105.686C126.264 105.874 126.095 106.082 126.001 106.312L124.804 106.04C124.946 105.642 125.153 105.321 125.426 105.077C125.702 104.83 126.018 104.651 126.376 104.54C126.734 104.426 127.111 104.369 127.506 104.369C127.767 104.369 128.044 104.401 128.337 104.463C128.632 104.523 128.908 104.634 129.163 104.795C129.422 104.957 129.634 105.189 129.798 105.49C129.963 105.788 130.045 106.176 130.045 106.653V111H128.801V110.105H128.75C128.668 110.27 128.544 110.432 128.379 110.591C128.214 110.75 128.003 110.882 127.744 110.987C127.486 111.092 127.176 111.145 126.815 111.145ZM127.092 110.122C127.445 110.122 127.746 110.053 127.996 109.913C128.249 109.774 128.44 109.592 128.571 109.368C128.705 109.141 128.771 108.898 128.771 108.639V107.795C128.726 107.841 128.638 107.884 128.507 107.923C128.379 107.96 128.233 107.993 128.068 108.021C127.903 108.047 127.743 108.071 127.587 108.094C127.43 108.114 127.3 108.131 127.195 108.145C126.947 108.176 126.722 108.229 126.517 108.303C126.315 108.376 126.153 108.483 126.031 108.622C125.912 108.759 125.852 108.94 125.852 109.168C125.852 109.483 125.969 109.722 126.202 109.884C126.435 110.043 126.732 110.122 127.092 110.122ZM134.438 104.455V105.477H130.863V104.455H134.438ZM131.821 102.886H133.096V109.078C133.096 109.325 133.133 109.511 133.206 109.636C133.28 109.759 133.375 109.842 133.492 109.888C133.611 109.93 133.741 109.952 133.88 109.952C133.982 109.952 134.071 109.945 134.148 109.93C134.225 109.916 134.285 109.905 134.327 109.896L134.557 110.949C134.483 110.977 134.378 111.006 134.242 111.034C134.106 111.065 133.935 111.082 133.731 111.085C133.395 111.091 133.083 111.031 132.793 110.906C132.503 110.781 132.269 110.588 132.09 110.327C131.911 110.065 131.821 109.737 131.821 109.342V102.886ZM138.238 111.132C137.593 111.132 137.038 110.994 136.572 110.719C136.109 110.44 135.751 110.05 135.498 109.547C135.248 109.041 135.123 108.449 135.123 107.77C135.123 107.099 135.248 106.509 135.498 105.997C135.751 105.486 136.103 105.087 136.555 104.8C137.009 104.513 137.541 104.369 138.149 104.369C138.518 104.369 138.876 104.43 139.222 104.553C139.569 104.675 139.88 104.866 140.156 105.128C140.431 105.389 140.649 105.729 140.808 106.146C140.967 106.561 141.046 107.065 141.046 107.659V108.111H135.843V107.156H139.798C139.798 106.821 139.73 106.524 139.593 106.266C139.457 106.004 139.265 105.798 139.018 105.648C138.774 105.497 138.487 105.422 138.157 105.422C137.799 105.422 137.487 105.51 137.22 105.686C136.955 105.859 136.751 106.087 136.606 106.368C136.464 106.646 136.393 106.949 136.393 107.276V108.021C136.393 108.459 136.47 108.831 136.623 109.138C136.779 109.445 136.997 109.679 137.275 109.841C137.553 110 137.879 110.08 138.251 110.08C138.492 110.08 138.713 110.045 138.911 109.977C139.11 109.906 139.282 109.801 139.427 109.662C139.572 109.523 139.683 109.351 139.759 109.146L140.965 109.364C140.869 109.719 140.695 110.03 140.445 110.297C140.198 110.561 139.887 110.767 139.512 110.915C139.14 111.06 138.715 111.132 138.238 111.132ZM143.374 102.273V111H142.1V102.273H143.374ZM145.534 113.455C145.343 113.455 145.17 113.439 145.014 113.408C144.858 113.379 144.741 113.348 144.664 113.314L144.971 112.27C145.204 112.332 145.412 112.359 145.593 112.351C145.775 112.342 145.936 112.274 146.075 112.146C146.217 112.018 146.342 111.81 146.45 111.52L146.608 111.085L144.213 104.455H145.576L147.234 109.534H147.302L148.96 104.455H150.328L147.63 111.874C147.505 112.214 147.346 112.503 147.153 112.739C146.96 112.977 146.73 113.156 146.463 113.276C146.196 113.395 145.886 113.455 145.534 113.455ZM157.032 111.119C156.418 111.119 155.873 111.014 155.396 110.804C154.921 110.594 154.546 110.301 154.271 109.926C153.995 109.551 153.849 109.118 153.832 108.626H155.434C155.448 108.862 155.526 109.068 155.668 109.244C155.811 109.418 155.999 109.553 156.235 109.649C156.471 109.746 156.735 109.794 157.028 109.794C157.34 109.794 157.617 109.74 157.859 109.632C158.1 109.521 158.289 109.368 158.426 109.172C158.562 108.976 158.629 108.75 158.626 108.494C158.629 108.23 158.561 107.997 158.421 107.795C158.282 107.594 158.08 107.436 157.816 107.322C157.555 107.209 157.24 107.152 156.87 107.152H156.099V105.933H156.87C157.174 105.933 157.44 105.881 157.667 105.776C157.897 105.67 158.078 105.523 158.208 105.332C158.339 105.139 158.403 104.916 158.4 104.663C158.403 104.416 158.347 104.202 158.234 104.02C158.123 103.835 157.965 103.692 157.761 103.589C157.559 103.487 157.322 103.436 157.049 103.436C156.782 103.436 156.535 103.484 156.308 103.581C156.08 103.678 155.897 103.815 155.758 103.994C155.619 104.17 155.545 104.381 155.536 104.625H154.015C154.026 104.136 154.167 103.707 154.437 103.338C154.71 102.966 155.073 102.676 155.528 102.469C155.982 102.259 156.492 102.153 157.058 102.153C157.64 102.153 158.146 102.263 158.575 102.482C159.007 102.697 159.34 102.989 159.576 103.355C159.812 103.722 159.93 104.126 159.93 104.57C159.933 105.061 159.788 105.473 159.495 105.805C159.205 106.138 158.825 106.355 158.353 106.457V106.526C158.967 106.611 159.437 106.838 159.764 107.207C160.093 107.574 160.257 108.03 160.254 108.575C160.254 109.064 160.115 109.501 159.836 109.888C159.561 110.271 159.18 110.572 158.694 110.791C158.211 111.01 157.657 111.119 157.032 111.119ZM165.341 111L163.491 104.455H165.064L166.214 109.057H166.274L167.45 104.455H169.006L170.182 109.031H170.246L171.379 104.455H172.956L171.102 111H169.496L168.268 106.577H168.179L166.952 111H165.341ZM176.383 111.128C175.727 111.128 175.16 110.991 174.683 110.719C174.209 110.443 173.843 110.054 173.588 109.551C173.332 109.045 173.204 108.45 173.204 107.766C173.204 107.092 173.332 106.501 173.588 105.993C173.846 105.482 174.207 105.084 174.67 104.8C175.133 104.513 175.677 104.369 176.302 104.369C176.706 104.369 177.086 104.435 177.444 104.565C177.805 104.693 178.123 104.892 178.399 105.162C178.677 105.432 178.896 105.776 179.055 106.193C179.214 106.608 179.294 107.102 179.294 107.676V108.149H173.929V107.109H177.815C177.812 106.814 177.748 106.551 177.623 106.321C177.498 106.088 177.324 105.905 177.099 105.771C176.878 105.638 176.619 105.571 176.324 105.571C176.008 105.571 175.731 105.648 175.493 105.801C175.254 105.952 175.068 106.151 174.934 106.398C174.804 106.642 174.737 106.911 174.734 107.203V108.111C174.734 108.491 174.804 108.818 174.943 109.091C175.082 109.361 175.277 109.568 175.527 109.713C175.777 109.855 176.069 109.926 176.405 109.926C176.629 109.926 176.832 109.895 177.014 109.832C177.196 109.767 177.353 109.672 177.487 109.547C177.62 109.422 177.721 109.267 177.789 109.082L179.23 109.244C179.139 109.625 178.966 109.957 178.71 110.241C178.457 110.523 178.133 110.741 177.738 110.898C177.343 111.051 176.892 111.128 176.383 111.128ZM183.137 111.128C182.48 111.128 181.913 110.991 181.436 110.719C180.962 110.443 180.597 110.054 180.341 109.551C180.085 109.045 179.958 108.45 179.958 107.766C179.958 107.092 180.085 106.501 180.341 105.993C180.6 105.482 180.96 105.084 181.423 104.8C181.887 104.513 182.431 104.369 183.056 104.369C183.459 104.369 183.84 104.435 184.198 104.565C184.558 104.693 184.877 104.892 185.152 105.162C185.431 105.432 185.649 105.776 185.808 106.193C185.967 106.608 186.047 107.102 186.047 107.676V108.149H180.682V107.109H184.568C184.565 106.814 184.502 106.551 184.377 106.321C184.252 106.088 184.077 105.905 183.852 105.771C183.631 105.638 183.372 105.571 183.077 105.571C182.762 105.571 182.485 105.648 182.246 105.801C182.007 105.952 181.821 106.151 181.688 106.398C181.557 106.642 181.49 106.911 181.487 107.203V108.111C181.487 108.491 181.557 108.818 181.696 109.091C181.835 109.361 182.03 109.568 182.28 109.713C182.53 109.855 182.823 109.926 183.158 109.926C183.382 109.926 183.585 109.895 183.767 109.832C183.949 109.767 184.107 109.672 184.24 109.547C184.374 109.422 184.475 109.267 184.543 109.082L185.983 109.244C185.892 109.625 185.719 109.957 185.463 110.241C185.21 110.523 184.887 110.741 184.492 110.898C184.097 111.051 183.645 111.128 183.137 111.128ZM188.398 108.946L188.394 107.084H188.641L190.993 104.455H192.796L189.903 107.676H189.583L188.398 108.946ZM186.992 111V102.273H188.535V111H186.992ZM191.1 111L188.969 108.021L190.009 106.935L192.945 111H191.1ZM198.637 106.185L197.231 106.338C197.191 106.196 197.122 106.062 197.022 105.938C196.926 105.812 196.795 105.712 196.63 105.635C196.466 105.558 196.264 105.52 196.025 105.52C195.704 105.52 195.434 105.589 195.216 105.729C195 105.868 194.893 106.048 194.896 106.27C194.893 106.46 194.963 106.615 195.105 106.734C195.25 106.854 195.488 106.952 195.821 107.028L196.937 107.267C197.556 107.401 198.017 107.612 198.318 107.902C198.622 108.192 198.775 108.571 198.778 109.04C198.775 109.452 198.654 109.815 198.416 110.131C198.18 110.443 197.852 110.687 197.431 110.864C197.011 111.04 196.528 111.128 195.983 111.128C195.181 111.128 194.537 110.96 194.048 110.625C193.559 110.287 193.268 109.817 193.174 109.214L194.679 109.07C194.747 109.365 194.892 109.588 195.113 109.739C195.335 109.889 195.623 109.964 195.978 109.964C196.345 109.964 196.639 109.889 196.86 109.739C197.085 109.588 197.197 109.402 197.197 109.18C197.197 108.993 197.125 108.838 196.98 108.716C196.838 108.594 196.616 108.5 196.315 108.435L195.198 108.2C194.571 108.07 194.106 107.849 193.805 107.54C193.504 107.227 193.355 106.832 193.358 106.355C193.355 105.952 193.464 105.602 193.686 105.307C193.91 105.009 194.221 104.778 194.619 104.616C195.019 104.452 195.481 104.369 196.004 104.369C196.771 104.369 197.375 104.533 197.815 104.859C198.258 105.186 198.532 105.628 198.637 106.185Z" fill="#B7AFA9"/>
<rect x="12" y="130" width="249" height="52" rx="12" fill="#343433"/>
<path d="M123.393 162V150.364H127.848C128.689 150.364 129.388 150.496 129.944 150.761C130.505 151.023 130.924 151.381 131.2 151.835C131.48 152.29 131.621 152.805 131.621 153.381C131.621 153.854 131.53 154.259 131.348 154.597C131.166 154.93 130.922 155.201 130.615 155.409C130.308 155.617 129.965 155.767 129.587 155.858V155.972C129.999 155.994 130.395 156.121 130.774 156.352C131.157 156.58 131.469 156.902 131.712 157.318C131.954 157.735 132.075 158.239 132.075 158.83C132.075 159.432 131.929 159.973 131.638 160.455C131.346 160.932 130.907 161.309 130.319 161.585C129.732 161.862 128.994 162 128.104 162H123.393ZM125.501 160.239H127.768C128.534 160.239 129.085 160.093 129.422 159.801C129.763 159.506 129.933 159.127 129.933 158.665C129.933 158.32 129.848 158.009 129.677 157.733C129.507 157.453 129.265 157.233 128.95 157.074C128.636 156.911 128.261 156.83 127.825 156.83H125.501V160.239ZM125.501 155.312H127.587C127.95 155.312 128.278 155.246 128.569 155.114C128.861 154.977 129.09 154.786 129.257 154.54C129.427 154.29 129.513 153.994 129.513 153.653C129.513 153.203 129.354 152.831 129.035 152.54C128.721 152.248 128.253 152.102 127.632 152.102H125.501V155.312ZM138.901 158.33V153.273H140.957V162H138.963V160.449H138.872C138.675 160.937 138.351 161.337 137.901 161.648C137.454 161.958 136.902 162.114 136.247 162.114C135.675 162.114 135.17 161.987 134.73 161.733C134.295 161.475 133.954 161.102 133.707 160.614C133.461 160.121 133.338 159.527 133.338 158.83V153.273H135.395V158.511C135.395 159.064 135.546 159.504 135.849 159.83C136.152 160.155 136.55 160.318 137.043 160.318C137.346 160.318 137.639 160.244 137.923 160.097C138.207 159.949 138.44 159.729 138.622 159.438C138.808 159.142 138.901 158.773 138.901 158.33ZM143.871 165.273C143.591 165.273 143.331 165.25 143.092 165.205C142.858 165.163 142.67 165.114 142.53 165.057L143.007 163.455C143.306 163.542 143.574 163.583 143.808 163.58C144.043 163.576 144.25 163.502 144.428 163.358C144.609 163.218 144.763 162.983 144.888 162.653L145.064 162.182L141.899 153.273H144.081L146.092 159.864H146.183L148.2 153.273H150.388L146.894 163.057C146.731 163.519 146.515 163.915 146.246 164.244C145.977 164.578 145.647 164.831 145.257 165.006C144.871 165.184 144.409 165.273 143.871 165.273Z" fill="white"/>
</svg>
